<svg width="300" height="300" viewBox="0 0 300 300" fill="none" xmlns="http://www.w3.org/2000/svg">
<rect width="300" height="300" rx="75" fill="white"/>
<rect x="25" y="25" width="250" height="250" rx="50" fill="#8C57C2"/>
<path d="M207.641 136.7C210.886 157.165 214.077 177.641 217.429 198.085C218.249 203.255 217.264 207.832 214.188 212.094C210.976 216.548 202.653 219.386 197.522 217.995C189.901 215.867 185.973 210.578 184.715 202.995C180.537 176.993 176.404 150.927 172.28 124.915C171.939 122.761 171.65 120.596 171.095 118.483C169.836 113.676 165.515 111.129 160.235 111.932C155.169 112.694 151.393 116.37 151.217 121.178C151.122 123.362 151.356 125.537 151.698 127.691C154.249 144.127 157.014 160.522 159.458 176.979C160.48 183.775 159.073 190.211 153.125 194.808C144.329 201.623 132.134 198.829 128.443 188.776C127.192 185.41 126.772 181.717 126.208 178.163C125.034 171.451 124.181 164.678 122.899 157.987C121.532 150.759 115.91 146.965 109.448 148.664C105.743 149.661 102.421 153.415 101.76 157.596C101.229 160.864 101.277 164.296 100.152 167.29C97.3735 174.825 90.9318 178.74 82.9698 178.288C76.1297 177.951 70.2766 172.704 68.8135 165.216C67.7028 159.603 66.9132 153.927 66.0166 148.272C64.8468 140.894 63.6855 133.57 62.5691 126.181C61.7004 120.354 63.1972 115.178 67.3441 110.709C73.0161 104.722 83.7467 104.193 89.6789 109.591C92.3797 112.009 93.9626 115.032 94.6417 118.62C95.1928 121.4 95.6283 124.146 96.2329 126.916C97.6921 133.683 101.992 136.789 108.165 135.701C114.337 134.613 118.151 129.432 117.252 122.722C116.015 113.525 114.456 104.391 113.058 95.2249C112.734 93.1783 112.615 91.0364 112.29 88.9899C111.27 81.8601 117.204 74.046 124.694 71.8697C131.291 69.9779 139.776 73.3818 142.672 79.8141C144.208 83.2353 145.073 86.9532 145.832 90.692C147.536 99.3542 154.86 100.652 160.32 98.2038C163.832 96.689 166.542 92.5543 166.328 88.7655C166.192 86.5158 165.726 84.2747 165.474 81.9919C164.839 75.8977 166.178 70.4195 170.629 65.7801C178.785 57.3678 193.882 60.709 197.067 71.7484C197.701 74.0123 198.015 76.3385 198.391 78.7081C201.518 98.0857 204.584 117.42 207.641 136.7Z" fill="white"/>
<path d="M109.493 205.327C111.122 214.559 104.676 222.972 96.0754 224.753C87.4209 226.545 78.7229 220.407 77.2776 211.639C75.8236 202.817 82.015 193.842 90.7402 192.148C99.885 190.316 107.962 196.02 109.493 205.327Z" fill="white"/>
<circle cx="227.384" cy="90.3223" r="17.6595" fill="white"/>
</svg>
