<?xml version="1.0" encoding="UTF-8"?><svg id="Layer_1" xmlns="http://www.w3.org/2000/svg" viewBox="0 0 755.92 749.05"><defs><style>.cls-1{stroke:#f4ec51;stroke-miterlimit:10;stroke-width:.4px;}.cls-1,.cls-2{fill:#6200ea;}</style></defs><path class="cls-2" d="M141.11,663.65v48.1h392.49v-48.1H141.11ZM506.99,696.76H167.72v-15.93h339.27v15.93Z"/><path class="cls-1" d="M640.8,534.53h-114.63v64.87c0,12.46-10.09,22.55-22.55,22.55H172.35c-12.46,0-22.55-10.09-22.55-22.55v-60.93c-8.26,3.49-15.39,9.14-20.71,16.24-.08.08-.14.17-.22.26-.06.08-.12.17-.2.25-.06.09-.12.17-.18.25-.06.09-.14.17-.2.26s-.14.17-.2.26c-.06.08-.14.15-.2.25-.06.08-.14.17-.2.26-.06.08-.14.15-.2.25-.06.08-.12.17-.18.25-.08.09-.14.17-.21.26-.06.09-.12.17-.2.26-.06.08-.12.15-.18.25-.06.08-.14.17-.2.25-.06.09-.14.17-.2.25-.06.09-.14.18-.22.28-.06.08-.12.15-.18.25-.06.08-.12.17-.2.25-.06.09-.12.17-.2.26-.06.08-.14.17-.2.26-.06.08-.12.15-.18.25-.08.08-.14.17-.2.25-.06.09-.14.17-.2.26-.08.08-.14.17-.2.26-.05.06-.12.14-.17.22-.02.02-.03.02-.03.03-.06.08-.14.17-.2.25-.06.09-.14.17-.2.26-.06.08-.12.17-.2.25-.06.09-.12.17-.2.26-.06.08-.12.15-.18.25-.08.09-.14.17-.2.26-.08.08-.14.17-.2.25-.06.09-.14.17-.2.26-.08.08-.14.17-.2.25-.06.08-.14.17-.2.25-.06.09-.14.18-.2.28-.06.08-.14.15-.18.23-.08.09-.14.17-.2.26-.08.09-.14.17-.2.25-.08.09-.14.17-.2.26-.08.09-.14.17-.22.26-.06.08-.12.17-.18.25-.06.09-.14.17-.2.25-.06.09-.14.17-.2.26-.06.09-.14.17-.2.26-.06.08-.14.17-.2.25-.06.09-.12.17-.2.26-.06.08-.12.15-.18.25-.08.08-.14.17-.22.26-.06.08-.12.17-.18.25-.08.09-.14.17-.2.25-.06.09-.14.17-.2.26s-.14.17-.2.26c-.06.08-.14.15-.2.25-.06.08-.12.17-.2.25-.06.09-.12.17-.2.26-.06.09-.14.17-.2.26-.06.08-.12.15-.18.25-.06.08-.14.17-.2.25-.06.09-.14.17-.2.26-.06.08-.14.17-.2.26-.06.08-.14.15-.2.25-.06.08-.14.17-.2.25-.06.09-.12.17-.18.25-.08.09-.14.18-.22.26-.06.09-.14.18-.2.26-.06.09-.12.17-.18.25-.06.09-.14.17-.2.26-.08.08-.14.17-.2.25-.06.09-.14.17-.2.26-.06.08-.14.17-.2.25-.06.09-.14.17-.2.26-.06.08-.12.17-.2.25-.06.09-.12.17-.2.26-.06.08-.12.17-.18.25-.08.09-.14.17-.22.26-.06.08-.12.17-.18.25-.08.09-.14.17-.2.26-.06.08-.14.17-.2.25-.06.09-.14.17-.2.26-.06.08-.12.15-.18.25-.08.09-.15.17-.22.26-.06.08-.12.17-.18.25-.08.08-.14.17-.2.25-.08.09-.14.18-.21.26-.06.09-.12.17-.18.26-.08.08-.14.17-.2.25-.06.09-.14.17-.2.25-.06.09-.14.17-.2.26s-.14.17-.2.26c-.06.08-.14.17-.2.25-.06.09-.12.17-.18.25-.08.09-.14.17-.22.26-.06.09-.12.17-.2.26-.06.08-.12.15-.18.25-.08.09-.14.17-.2.26-.06.08-.14.15-.2.25-.06.08-.14.17-.2.25-.06.09-.14.17-.2.26s-.14.17-.2.26c-.06.08-.12.15-.18.25-.08.08-.14.17-.21.26-.06.08-.12.15-.18.25-.08.08-.14.17-.2.25-.08.09-.14.17-.2.26-.08.09-.14.17-.2.25-.06.09-.14.17-.2.26s-.14.17-.2.25c-.06.09-.14.17-.2.26-.06.08-.14.17-.2.26-.06.08-.14.15-.2.25s-.12.17-.18.25c-.08.09-.14.17-.2.26-.06.08-.14.17-.2.25-.08.09-.14.18-.2.26-.08.09-.14.17-.2.25-.06.09-.14.17-.2.26-.06.08-.12.15-.2.25-.06.09-.14.17-.2.26s-.14.17-.2.26c-.06.08-.12.15-.18.25-.08.08-.14.15-.2.25s-.14.17-.2.26c-.06.08-.14.17-.2.25-.06.09-.14.17-.2.26-.06.08-.14.17-.2.25-.06.09-.14.17-.2.26-.06.08-.12.17-.2.25-.06.09-.12.17-.2.26-.06.08-.12.17-.2.25-.06.09-.12.17-.18.25-.08.09-.14.18-.21.28-.06.08-.12.15-.18.25-.06.08-.14.17-.2.25-.06.09-.14.17-.2.26-.06.08-.14.17-.2.25-.06.09-.12.17-.2.25-.06.09-.12.17-.18.26-.08.08-.14.17-.2.25-.08.09-.15.18-.22.28-.06.08-.12.15-.18.23-.06.09-.14.17-.2.26s-.14.17-.2.26c-.06.08-.14.15-.2.25s-.14.17-.2.26c-.06.08-.14.15-.2.25-.06.08-.12.17-.2.26-.06.08-.12.15-.2.25-.06.09-.12.17-.18.26-.08.08-.14.17-.2.25-.08.09-.14.17-.2.25-.06.09-.14.17-.2.26s-.14.17-.2.25c-.06.09-.14.18-.2.26-.06.09-.12.17-.18.25-.08.09-.14.17-.21.26-.06.09-.14.17-.2.26-.06.08-.12.15-.18.25-.08.08-.14.17-.2.26-.08.08-.14.17-.22.25-.06.09-.12.17-.18.25-.06.09-.14.17-.2.26-.06.08-.14.17-.2.25-.06.09-.14.17-.2.26s-.14.17-.2.26c-.06.08-.12.15-.18.25-.08.08-.14.17-.2.25-.08.09-.14.17-.2.26-.08.09-.14.17-.22.26-.06.08-.12.15-.18.25-.06.08-.14.17-.2.25-.06.09-.14.17-.2.26-.06.08-.14.17-.2.26-.06.08-.14.15-.2.25-.06.08-.12.15-.18.25-.08.09-.14.17-.2.26-.08.08-.14.17-.22.26-.06.08-.12.15-.18.23-.06.09-.14.18-.2.26-.08.09-.14.17-.2.26-.06.08-.14.17-.2.25-.06.09-.14.17-.2.26-.06.08-.12.15-.2.25-.06.09-.12.17-.2.26-.06.08-.14.17-.2.26-.06.08-.12.15-.18.25-.08.08-.14.15-.2.25s-.14.17-.2.25c-.06.09-.14.18-.2.26-.06.09-.14.17-.2.26-.06.08-.14.15-.2.25-.06.08-.12.17-.2.25-.06.09-.14.18-.2.26-.06.09-.14.17-.2.26-.06.08-.12.15-.18.25-.06.08-.14.17-.2.25-.06.09-.14.17-.2.26s-.14.17-.2.25c-.06.09-.14.18-.2.26-.06.09-.14.17-.2.25-.06.09-.12.17-.2.26-.06.09-.14.17-.2.26-.06.08-.12.15-.2.25-.06.09-.12.17-.18.26-.08.08-.14.15-.2.25-.08.09-.14.17-.22.26-.06.08-.12.15-.18.25-.06.08-.14.17-.2.25-.06.09-.14.17-.2.26-.06.09-.14.17-.2.26-.06.08-.12.15-.18.23-.08.09-.14.18-.22.26-.06.09-.12.17-.18.26-.08.08-.14.17-.22.26-.06.08-.12.15-.18.25-.06.08-.14.17-.2.25-.06.09-.14.17-.2.26-.06.08-.14.17-.2.26-.06.08-.14.15-.2.25-.06.08-.12.17-.18.25-.08.09-.14.17-.2.26-.08.08-.14.17-.2.25-.08.09-.14.18-.22.26-.06.09-.12.17-.18.25-.06.09-.14.17-.2.26-.06.08-.14.17-.2.25-.06.09-.14.17-.2.26-.06.08-.14.17-.2.25-.06.09-.12.17-.2.26-.06.08-.12.17-.2.25-.06.09-.12.17-.2.26-.06.08-.12.17-.18.25-.08.09-.14.17-.2.26-.08.08-.14.17-.2.25-.06.09-.14.17-.2.26-.06.08-.14.17-.2.25-.06.09-.12.17-.18.25-.08.09-.15.17-.22.26s-.14.17-.2.26c-.06.08-.12.17-.18.25-.08.09-.14.17-.2.25-.06.09-.14.17-.2.26-.08.09-.14.17-.22.26-.06.08-.12.15-.18.25-.06.08-.14.17-.2.26-.06.08-.14.15-.2.25s-.14.17-.2.26c-.06.08-.12.17-.2.25-.06.09-.12.17-.2.26-.06.08-.12.15-.18.25-.06.08-.14.17-.2.26-.08.08-.14.15-.2.25-.06.08-.14.17-.2.26-.06.08-.14.15-.2.25-.06.08-.12.17-.2.25-6.34,8.37-10.12,18.8-10.12,30.09v49.77c0,27.53,22.4,49.93,49.93,49.93h472.01c16.36,0,30.89-7.9,40.02-20.09.06-.09.12-.17.18-.26.08-.08.14-.17.22-.26.06-.08.12-.15.18-.25.08-.08.14-.17.22-.26.06-.08.12-.15.18-.25.06-.08.14-.17.2-.25.06-.09.14-.18.2-.26.06-.09.12-.17.2-.25.06-.09.12-.17.18-.26.08-.09.14-.17.2-.25.06-.09.14-.17.2-.26.08-.09.14-.17.2-.26.06-.09.14-.17.2-.25.06-.09.14-.17.2-.26.06-.08.12-.17.2-.25.06-.09.14-.17.2-.26s.12-.17.18-.25c.08-.09.14-.17.2-.26.06-.08.14-.17.2-.25.06-.09.14-.17.2-.26s.14-.17.2-.26c.06-.08.14-.17.2-.25.06-.09.12-.17.18-.25.08-.09.14-.18.21-.28l.18-.23c.06-.09.14-.18.2-.26.08-.09.14-.17.2-.26.06-.08.14-.17.2-.25.06-.09.14-.18.2-.26.06-.09.12-.17.18-.25.08-.09.14-.17.22-.26.06-.09.14-.17.2-.26.06-.08.12-.15.18-.25.06-.08.14-.17.2-.26.06-.08.14-.15.2-.25.06-.08.14-.17.2-.26.06-.08.14-.17.2-.26.06-.08.12-.15.18-.23.08-.09.14-.18.22-.26.06-.09.12-.17.18-.26.08-.08.14-.17.2-.26.08-.08.14-.15.2-.25.06-.08.14-.17.2-.25.06-.09.14-.17.2-.26.06-.08.12-.17.2-.25.06-.09.14-.18.2-.26.06-.09.12-.17.18-.25.06-.09.14-.17.2-.26s.14-.17.2-.26c.06-.08.14-.17.2-.25.06-.09.14-.17.2-.26.06-.08.14-.17.2-.25.06-.09.12-.17.18-.26.08-.08.14-.17.22-.25.06-.09.12-.17.18-.26.08-.08.14-.17.2-.25.08-.09.14-.17.2-.26.06-.08.14-.17.2-.25.06-.09.14-.17.2-.26.06-.08.14-.17.2-.26.06-.08.14-.17.2-.25.06-.09.12-.17.2-.26.06-.08.12-.15.18-.25.06-.08.14-.17.2-.25.06-.09.14-.18.2-.28.06-.08.14-.15.2-.25.06-.08.14-.17.2-.25.06-.09.12-.17.2-.26.06-.08.12-.17.18-.25.08-.09.14-.17.22-.26.06-.09.12-.17.18-.26.08-.08.14-.15.2-.25s.14-.17.2-.25c.06-.09.14-.17.2-.26.06-.09.14-.17.2-.26.06-.08.12-.17.2-.25.06-.09.12-.17.18-.26.08-.08.14-.17.2-.25.06-.09.14-.17.2-.25.06-.09.14-.18.2-.26.06-.09.14-.17.2-.26.06-.08.14-.17.2-.26.06-.08.14-.15.2-.25.06-.08.12-.17.18-.25.08-.09.14-.17.2-.26.08-.08.14-.17.2-.25.08-.09.14-.18.2-.26.06-.09.14-.17.2-.25.06-.09.14-.17.2-.26s.14-.17.2-.26c.06-.08.12-.17.2-.25.06-.09.12-.17.18-.26.08-.08.14-.15.2-.25s.14-.17.2-.26c.06-.08.14-.17.2-.25.06-.09.14-.17.2-.26.06-.08.14-.17.2-.25.06-.09.14-.18.2-.26.06-.09.12-.17.18-.25.08-.09.14-.17.2-.26.08-.08.14-.17.2-.26.08-.08.14-.17.2-.25.06-.09.14-.17.2-.26.06-.08.14-.15.2-.25.06-.08.12-.17.2-.26.06-.08.14-.17.2-.26.06-.08.12-.15.18-.25.08-.08.14-.15.2-.25s.14-.17.2-.26c.06-.08.14-.17.2-.25.06-.09.14-.17.2-.26.06-.09.14-.17.2-.26.06-.08.12-.15.2-.25.06-.08.12-.17.18-.25.08-.09.14-.18.22-.28.06-.08.12-.15.18-.25.06-.08.14-.15.2-.25.06-.09.14-.17.2-.26.06-.08.14-.15.2-.25s.14-.17.2-.26.14-.17.2-.25c.06-.09.12-.17.18-.26.08-.09.14-.17.22-.26l.18-.23c.06-.09.14-.18.2-.28.06-.08.14-.15.2-.25.06-.08.12-.17.18-.25.08-.09.15-.18.22-.28.06-.08.12-.15.18-.23.08-.09.14-.18.2-.26.08-.09.14-.17.21-.26.06-.08.12-.15.18-.25s.14-.17.2-.26c.06-.08.14-.17.2-.25.06-.09.14-.17.2-.26s.14-.17.2-.26c.06-.08.12-.15.18-.25.08-.08.14-.17.2-.25.08-.09.14-.17.2-.26.08-.09.14-.17.2-.26.06-.08.14-.15.2-.25s.12-.17.2-.25c.06-.09.12-.17.2-.26.06-.09.12-.17.18-.26.08-.08.14-.17.22-.26.06-.08.12-.15.18-.25.06-.08.14-.15.2-.25s.14-.17.2-.26.14-.17.2-.25c.06-.09.14-.17.2-.26.06-.09.14-.17.2-.26.06-.08.12-.15.18-.25.08-.08.14-.17.21-.26.06-.08.12-.15.18-.25.06-.08.14-.17.2-.26.06-.08.14-.17.2-.25.06-.09.14-.17.2-.26.06-.08.12-.17.2-.25.06-.09.12-.17.18-.26.08-.08.14-.17.2-.25.08-.09.14-.17.22-.26.06-.09.12-.17.18-.25.06-.09.14-.17.2-.26.06-.08.14-.17.2-.26.06-.08.14-.15.2-.25.06-.08.12-.17.2-.25.06-.09.12-.17.18-.26.08-.08.14-.17.2-.25.08-.09.14-.18.2-.26.08-.09.14-.17.2-.26.06-.08.14-.15.2-.25s.14-.17.2-.26.14-.17.2-.25c.06-.09.12-.17.18-.25.08-.09.14-.18.22-.28.06-.08.12-.15.18-.25.06-.08.14-.17.2-.26.06-.08.14-.15.2-.25.06-.08.14-.17.2-.25.06-.09.14-.18.2-.26.06-.09.14-.17.2-.26.06-.08.12-.17.2-.25.06-.09.12-.17.18-.25.06-.09.14-.18.2-.26.08-.09.14-.17.2-.26.06-.08.14-.17.2-.25.06-.09.14-.17.2-.26.06-.08.12-.17.2-.25.06-.09.14-.18.2-.26.06-.09.12-.17.18-.25.06-.09.14-.17.2-.26.06-.08.14-.17.2-.25.06-.09.14-.17.2-.26s.14-.17.2-.26.14-.17.2-.25c.06-.08.12-.17.2-.26.06-.08.14-.17.2-.26l.18-.23c.06-.09.14-.18.21-.28l.18-.23c.06-.09.14-.18.2-.26.06-.09.14-.17.2-.26.06-.08.12-.17.18-.25.08-.09.14-.17.22-.26.06-.09.12-.17.2-.26.06-.08.12-.15.18-.25.06-.08.14-.17.2-.25.06-.09.14-.17.2-.26s.14-.17.2-.26c.06-.08.14-.17.2-.25.06-.09.12-.17.2-.26.06-.08.12-.17.18-.25.08-.09.14-.17.2-.26.08-.09.14-.17.22-.26.06-.08.12-.15.18-.25.06-.08.14-.17.2-.25.06-.09.12-.17.2-.26.06-.08.12-.17.2-.25.06-.09.14-.18.2-.26.06-.09.12-.17.18-.25.08-.09.14-.17.2-.26.08-.09.14-.17.2-.26.06-.08.14-.17.2-.25.06-.09.14-.17.2-.26.06-.08.12-.15.2-.25.06-.09.12-.17.2-.26.06-.08.12-.17.2-.26.06-.08.12-.15.18-.25.08-.08.14-.17.2-.25.08-.09.14-.17.2-.26.06-.08.14-.17.2-.25.06-.09.12-.17.2-.26.06-.08.12-.17.2-.26.06-.08.12-.15.2-.25.06-.09.12-.17.2-.26.06-.08.12-.17.18-.25.06-.09.14-.17.2-.25.06-.09.14-.18.2-.28.06-.08.14-.15.2-.25.06-.08.14-.17.2-.25.06-.09.12-.17.18-.26.08-.08.14-.17.2-.25.08-.09.14-.17.2-.26.08-.09.14-.17.21-.26.06-.08.12-.15.18-.25.06-.08.14-.17.2-.25.06-.09.14-.17.2-.26.06-.09.14-.17.2-.26.06-.08.12-.15.18-.25.08-.09.14-.17.22-.26.06-.08.12-.17.18-.25.08-.09.14-.17.2-.26.08-.09.14-.17.2-.26.06-.08.14-.15.2-.23,6.36-8.42,10.15-18.88,10.15-30.23v-49.31c0-27.65-22.51-50.16-50.16-50.16ZM616.81,704.99c0,13.53-12.7,24.5-28.39,24.5H118.19c-15.68,0-28.39-10.97-28.39-24.5v-56.99c0-13.53,12.7-24.5,28.39-24.5h470.22c15.68,0,28.39,10.97,28.39,24.5v56.99Z"/><path class="cls-2" d="M595.39,166.3H248.91c-7.94,0-15.35,2.23-21.65,6.1-.11.08-.22.14-.34.22-.11.06-.22.12-.32.2-.11.06-.22.12-.32.2-.11.06-.22.12-.32.2-.11.06-.22.12-.32.18-.11.08-.23.14-.34.22-.11.06-.22.12-.32.2-.11.06-.22.12-.32.2-.11.06-.22.12-.32.2-.12.06-.22.12-.34.2-.11.06-.21.12-.32.2-.11.06-.21.12-.32.2-.11.06-.21.12-.32.2-.11.06-.21.12-.34.2-.11.06-.22.12-.32.2-.11.06-.22.12-.32.2-.11.06-.22.12-.32.2-.11.06-.21.12-.32.2-.12.06-.23.12-.34.2-.11.06-.22.12-.32.2-.11.06-.22.12-.32.2-.11.06-.22.12-.32.2-.11.06-.23.12-.34.2-.11.06-.22.12-.32.2-.11.06-.22.12-.32.2-.11.06-.22.12-.32.2-.11.06-.22.12-.34.2-.11.06-.22.12-.32.2-.11.06-.22.12-.32.2-.11.06-.22.14-.32.2s-.22.14-.32.2c-.12.06-.23.14-.34.2-.11.06-.21.14-.32.2-.11.06-.21.14-.32.2-.11.06-.22.14-.32.2-.11.06-.23.14-.34.2-.11.06-.22.14-.32.2-.11.06-.21.14-.32.2-.11.06-.21.14-.32.2-.11.06-.22.14-.32.2-.12.06-.23.14-.34.2-.11.06-.22.14-.32.2-.11.06-.21.14-.32.2-.11.06-.21.14-.32.2-.12.06-.23.14-.34.2-.11.06-.22.14-.32.2-.11.06-.22.14-.32.2-.11.06-.22.14-.32.2-.11.06-.22.14-.34.2-.11.06-.22.14-.32.2s-.22.14-.32.2-.22.14-.32.2c-.11.06-.22.14-.34.2-.11.06-.21.14-.32.2-.11.06-.22.14-.32.2s-.22.14-.32.2c-.11.06-.22.14-.32.2-.12.06-.23.14-.34.2-.11.06-.21.14-.32.2-.11.08-.22.14-.32.2-.11.08-.22.14-.32.2-.11.08-.23.14-.34.2-.11.08-.21.14-.32.2-.11.08-.21.14-.32.2-.11.08-.21.14-.32.2-.11.08-.21.14-.32.2-.12.08-.23.14-.34.2-.11.08-.22.14-.32.2-.11.08-.22.14-.32.2-.11.08-.22.14-.32.2-.12.08-.23.14-.34.2-.11.08-.22.14-.32.2-.11.08-.22.14-.32.2-.11.08-.22.14-.32.2-.11.08-.22.14-.34.2-.11.08-.22.14-.32.2-.11.08-.22.14-.32.2-.11.08-.22.14-.32.2-.11.08-.22.14-.32.2-.12.08-.23.14-.34.2-.11.08-.22.14-.32.2-.11.08-.22.14-.32.2-.11.08-.22.14-.32.21-.12.06-.23.12-.34.2-.11.06-.21.12-.32.2-.11.06-.21.12-.32.2-.11.06-.21.12-.32.2-.11.06-.23.12-.34.2-.11.06-.22.12-.32.2-.11.06-.22.12-.32.2-.11.06-.21.12-.32.2-.11.06-.21.12-.32.2-.12.06-.23.12-.34.2-.11.06-.22.12-.32.2-.11.06-.22.12-.32.2-.11.06-.21.12-.32.2-.12.06-.23.12-.34.2-.11.06-.22.12-.32.2-.11.06-.22.12-.32.2-.11.06-.22.12-.32.2-.11.06-.22.12-.34.2-.11.06-.22.12-.32.2-.11.06-.22.12-.32.2-.11.06-.22.12-.32.2-.11.06-.22.12-.32.2-.12.06-.23.12-.34.2-.11.06-.21.12-.32.2-.11.06-.22.12-.32.2-.11.06-.22.12-.32.2-.12.06-.23.12-.34.2-.11.06-.21.14-.32.2-.11.06-.21.14-.32.2-.11.06-.22.14-.32.2-.11.06-.23.14-.34.2-.11.06-.22.14-.32.2-.11.06-.21.14-.32.2-.11.06-.21.14-.32.2-.11.06-.21.14-.32.2-.12.06-.23.14-.34.2-.11.06-.22.14-.32.2-.11.06-.22.14-.32.2-.11.06-.22.14-.32.2-.11.06-.23.14-.34.2s-.22.14-.32.2-.22.14-.32.2c-.11.06-.22.14-.32.2-.11.06-.22.14-.34.2-.11.06-.22.14-.32.2s-.22.14-.32.2c-.11.06-.22.14-.32.2-.11.06-.22.14-.32.2-.12.06-.23.14-.34.2-.11.06-.22.14-.32.2-.11.06-.22.14-.32.2s-.22.14-.32.2c-.12.06-.23.14-.34.2-.11.06-.21.14-.32.2-.11.06-.21.14-.32.2-.11.06-.21.14-.32.2-.12.08-.23.14-.34.2-.11.06-.22.14-.32.2-.11.08-.22.14-.32.2-.11.08-.22.14-.32.2-.11.08-.21.14-.34.2-.11.08-.22.14-.32.2-.11.08-.22.14-.32.2-.11.08-.22.14-.32.2-.11.08-.22.14-.32.2-.11.08-.23.14-.34.2-.11.08-.22.14-.32.2-.11.08-.22.14-.32.2-.11.08-.22.14-.32.2-.11.08-.22.14-.34.2-.11.08-.22.14-.32.2-.11.08-.22.14-.32.2-.11.08-.22.14-.32.2-.11.08-.22.14-.32.2-.12.08-.23.14-.34.2-.11.08-.21.14-.32.2-.11.08-.21.14-.32.2-.11.08-.22.14-.32.2-.12.08-.23.14-.34.2-.11.08-.22.14-.32.2-.11.08-.21.14-.32.22-.11.06-.21.12-.32.2-.11.06-.22.12-.34.2-.11.06-.22.12-.32.2-.11.06-.22.12-.32.2-.11.06-.21.12-.32.2-.11.06-.21.12-.34.2-.11.06-.22.12-.32.2-.11.06-.22.12-.32.2-.11.06-.22.12-.32.2-.11.06-.22.12-.32.2-.12.06-.23.12-.34.2-.11.06-.22.12-.32.2-.11.06-.22.12-.32.2-.11.06-.22.12-.32.2-.11.06-.22.12-.34.2-.11.06-.21.12-.32.2-.11.06-.22.12-.32.2-.11.06-.22.12-.32.2-.11.06-.22.12-.34.2-.11.06-.21.12-.32.2-.11.06-.21.12-.32.2-.11.06-.22.12-.32.2-.11.06-.22.12-.32.2-.12.06-.23.12-.34.2-.11.06-.21.12-.32.2-.11.06-.21.12-.32.2-.11.06-.21.12-.32.2-.11.06-.21.12-.34.2-.11.06-.22.12-.32.2-.11.06-.22.14-.32.2-.11.06-.22.14-.32.2-.11.06-.22.14-.32.2-.12.06-.23.14-.34.2s-.22.14-.32.2c-.11.06-.22.14-.32.2-.11.06-.22.14-.32.2-.12.06-.23.14-.34.2-.11.06-.22.14-.32.2-.11.06-.22.14-.32.2-.11.06-.22.14-.32.2-.11.06-.22.14-.34.2-.11.06-.22.14-.32.2-.11.06-.22.14-.32.2-.11.06-.22.14-.32.2s-.22.14-.34.2c-.11.06-.21.14-.32.2-.11.06-.21.14-.32.2-.11.06-.21.14-.32.2-.11.06-.21.14-.32.2-.12.06-.23.14-.34.2-.11.06-.22.14-.32.2-.11.06-.22.14-.32.2-.11.06-.21.14-.32.2-.11.06-.23.14-.34.2-.11.06-.22.14-.32.2-.11.06-.22.14-.32.2-.11.06-.22.14-.32.2-.11.06-.21.14-.32.2-.12.06-.23.14-.34.2-.11.08-.22.14-.32.2-.11.08-.22.14-.32.2-.11.08-.22.14-.32.2-.11.08-.23.14-.34.2-.11.08-.22.14-.32.2-.11.08-.22.14-.32.2-.11.08-.22.14-.32.2-.11.08-.22.14-.34.2-.11.08-.21.14-.32.2-.11.08-.21.14-.32.2-.11.08-.22.14-.32.2-.11.08-.22.14-.32.2-.12.08-.23.14-.34.2-.11.08-.21.14-.32.2-.11.08-.21.14-.32.2-.11.08-.22.14-.32.2-.11.08-.23.14-.34.2-.11.08-.22.14-.32.2-.11.08-.21.14-.32.2-.11.08-.21.14-.32.2-.11.08-.23.14-.34.22-.11.06-.22.12-.32.18-.11.08-.22.14-.32.22-.11.06-.22.12-.32.2-.11.06-.22.12-.32.2-.12.06-.23.12-.34.18-.11.08-.22.14-.32.22-.11.06-.22.12-.32.2-.11.06-.22.12-.32.2-.12.06-.23.12-.34.2-.11.06-.22.12-.32.2-12.01,7.24-20.06,20.42-20.06,35.47v346.48c0,6.59,1.55,12.83,4.3,18.36,6.74,13.66,20.82,23.03,37.08,23.03h346.48c7.94,0,15.36-2.24,21.66-6.11.11-.06.22-.14.32-.2s.22-.14.32-.2.22-.14.32-.2c.11-.06.22-.14.32-.2.12-.06.23-.14.34-.2.11-.06.22-.14.32-.2.11-.06.22-.14.32-.2.11-.06.22-.14.32-.2.11-.06.22-.14.34-.2.11-.06.21-.14.32-.2.11-.06.22-.14.32-.2.11-.06.22-.14.32-.2.11-.06.22-.14.32-.2.12-.06.23-.14.34-.2.11-.06.21-.14.32-.2.11-.06.21-.14.32-.2.11-.06.21-.14.32-.2.12-.06.23-.14.34-.2.11-.06.22-.14.32-.2.11-.06.22-.14.32-.2.11-.06.22-.14.32-.2.11-.06.21-.14.34-.2.11-.06.22-.14.32-.2.11-.06.22-.14.32-.2.11-.06.22-.14.32-.2.11-.06.22-.14.34-.2.11-.08.22-.14.32-.2.11-.08.22-.14.32-.2.11-.08.22-.14.32-.2.11-.08.22-.14.32-.2.11-.08.23-.14.34-.2.11-.08.22-.14.32-.2.11-.08.22-.14.32-.2.11-.08.22-.14.32-.2.11-.08.23-.14.34-.2.11-.08.21-.14.32-.2.11-.08.21-.14.32-.2.11-.08.21-.14.32-.2.11-.08.22-.14.32-.2.12-.08.23-.14.34-.2.11-.08.22-.14.32-.2.11-.08.21-.14.32-.2.11-.08.21-.14.32-.2.11-.08.23-.14.34-.2.11-.08.22-.14.32-.2.11-.08.22-.14.32-.2.11-.08.21-.14.32-.2.11-.08.21-.14.34-.2.11-.08.22-.14.32-.2.11-.08.22-.14.32-.22.11-.06.22-.12.32-.2.11-.06.22-.12.32-.2.12-.06.23-.12.34-.2.11-.06.22-.12.32-.2.11-.06.22-.12.32-.2.11-.06.22-.12.32-.2.11-.06.23-.12.34-.2.11-.06.21-.12.32-.2.11-.06.22-.12.32-.2.11-.06.22-.12.32-.2.11-.06.22-.12.34-.2.11-.06.21-.12.32-.2.11-.06.21-.12.32-.2.11-.06.22-.12.32-.2.11-.06.22-.12.32-.2.12-.06.23-.12.34-.2.11-.06.21-.12.32-.2.11-.06.21-.12.32-.2.11-.06.21-.12.32-.2.12-.06.23-.12.34-.2.11-.06.22-.12.32-.2.11-.06.22-.12.32-.2.11-.06.22-.12.32-.2.11-.06.22-.12.32-.2.12-.06.23-.12.34-.2.11-.06.22-.12.32-.2.11-.06.22-.12.32-.2.11-.06.22-.12.32-.2.12-.06.23-.14.34-.2.11-.06.22-.14.32-.2.11-.06.22-.14.32-.2.11-.06.22-.14.32-.2.12-.06.22-.14.34-.2.11-.06.22-.14.32-.2.06-.03.14-.08.2-.12.05-.03.08-.05.12-.08.11-.06.22-.14.32-.2s.22-.14.34-.2c.11-.06.21-.14.32-.2.11-.06.21-.14.32-.2.11-.06.21-.14.32-.2.11-.06.21-.14.32-.2.12-.06.23-.14.34-.2.11-.06.22-.14.32-.2.11-.06.22-.14.32-.2.11-.06.21-.14.32-.2.11-.06.23-.14.34-.2.11-.06.22-.14.32-.2.11-.06.22-.14.32-.2.11-.06.22-.14.32-.2.11-.06.21-.14.34-.2.11-.06.22-.14.32-.2.11-.06.22-.14.32-.2.11-.06.22-.14.32-.2.11-.06.22-.14.32-.2.12-.06.23-.14.34-.2.11-.06.22-.14.32-.2.11-.06.22-.14.32-.2.11-.06.22-.14.32-.2.11-.06.22-.14.34-.2.11-.08.21-.14.32-.2.11-.08.21-.14.32-.2.11-.08.22-.14.32-.2.11-.08.22-.14.34-.2.11-.08.22-.14.32-.2.11-.08.21-.14.32-.2.11-.08.21-.14.32-.2.11-.08.22-.14.32-.2.11-.08.23-.14.34-.2.11-.08.22-.14.32-.2.11-.08.21-.14.32-.2.11-.08.21-.14.32-.2.11-.08.21-.14.34-.2.11-.08.22-.14.32-.2.11-.08.22-.14.32-.2.11-.08.22-.14.32-.2.11-.08.22-.14.34-.2.11-.08.22-.14.32-.2.11-.08.22-.14.32-.2.11-.08.22-.14.32-.2.11-.08.22-.14.32-.2.12-.08.23-.14.34-.2.11-.08.22-.14.32-.22.11-.06.22-.12.32-.2.11-.06.22-.12.32-.2.11-.06.23-.12.34-.2.11-.06.21-.12.32-.2.11-.06.22-.12.32-.2.11-.06.22-.12.32-.2.11-.06.22-.12.32-.2.12-.06.23-.12.34-.2.11-.06.21-.12.32-.2.11-.06.21-.12.32-.2.11-.06.21-.12.32-.2.12-.06.23-.12.34-.2.11-.06.22-.12.32-.2.11-.06.22-.12.32-.2.11-.06.22-.12.32-.2.11-.06.23-.12.34-.2.11-.06.22-.12.32-.2.11-.06.22-.12.32-.2.11-.06.22-.12.32-.2.11-.06.22-.12.32-.2.12-.06.23-.12.34-.2.11-.06.22-.12.32-.2.11-.06.22-.12.32-.2.11-.06.22-.12.32-.2.12-.06.23-.12.34-.2.11-.06.22-.14.32-.2.11-.06.22-.14.32-.2s.22-.12.32-.2c.11-.06.22-.12.34-.2.11-.06.21-.14.32-.2.11-.06.21-.14.32-.2.11-.06.21-.14.32-.2.11-.06.22-.14.32-.2.12-.06.23-.14.34-.2.11-.06.22-.14.32-.2.11-.06.21-.14.32-.2.11-.06.21-.14.32-.2.12-.06.23-.14.34-.2.11-.06.22-.14.32-.2.11-.06.22-.14.32-.2.11-.06.21-.14.32-.2.11-.06.21-.14.32-.2.12-.06.23-.14.34-.2.11-.06.22-.14.32-.2.11-.06.22-.14.32-.2.11-.06.22-.14.32-.2.12-.06.23-.14.34-.2.11-.06.22-.14.32-.2.11-.06.22-.14.32-.2.11-.06.22-.14.32-.2.12-.06.23-.14.34-.2.11-.06.21-.14.32-.2.11-.06.22-.14.32-.2s.22-.14.32-.2.23-.14.34-.2c.11-.06.21-.14.32-.2.11-.06.21-.14.32-.2.11-.06.22-.14.32-.2.11-.08.22-.14.32-.2.12-.08.23-.14.34-.2.11-.08.21-.14.32-.2.11-.08.21-.14.32-.2.11-.08.21-.14.32-.2.12-.08.23-.14.34-.2.11-.08.22-.14.32-.2.11-.08.22-.14.32-.2.11-.08.22-.14.32-.2.11-.08.22-.14.34-.2.11-.08.22-.14.32-.2.11-.08.22-.14.32-.2.11-.08.22-.14.32-.2.11-.08.22-.14.34-.2.11-.08.22-.14.32-.2.11-.08.22-.14.32-.2.11-.08.22-.14.32-.2.11-.08.22-.14.32-.2.12-.08.23-.14.34-.2.11-.08.22-.14.32-.2.11-.08.22-.14.32-.22.11-.06.22-.12.32-.18.11-.08.22-.14.34-.22.11-.06.21-.12.32-.2.11-.06.21-.12.32-.2.11-.06.21-.12.32-.2.11-.06.21-.12.32-.18.12-.08.23-.14.34-.22.11-.06.22-.12.32-.2.11-.06.22-.12.32-.2.11-.06.21-.12.32-.2.11-.06.23-.12.34-.2.11-.06.22-.12.32-.2.11-.06.22-.12.32-.2.11-.06.22-.12.32-.2.11-.06.21-.12.34-.2.11-.06.22-.12.32-.2.11-.06.22-.12.32-.2.11-.06.22-.12.32-.2.11-.06.22-.12.32-.2.12-.06.23-.12.34-.2.11-.06.22-.12.32-.2.11-.06.22-.12.32-.2.11-.06.22-.12.32-.2.12-.06.23-.12.34-.2.11-.06.21-.12.32-.2.11-.06.21-.12.32-.2.11-.06.22-.12.32-.2.11-.06.22-.12.34-.2.11-.06.22-.12.32-.2.11-.06.21-.14.32-.2.11-.06.21-.14.32-.2.11-.06.22-.14.32-.2.12-.06.23-.14.34-.2.11-.06.22-.14.32-.2.11-.06.21-.14.32-.2.11-.06.21-.14.32-.2.12-.06.23-.14.34-.2.11-.06.22-.14.32-.2.11-.06.22-.14.32-.2.11-.06.22-.14.32-.2.11-.06.22-.14.34-.2.11-.06.22-.14.32-.2.11-.06.22-.14.32-.2,12.03-7.24,20.06-20.42,20.06-35.47V207.67c0-22.84-18.53-41.37-41.39-41.37ZM526.17,599.41c0,12.46-10.09,22.55-22.55,22.55H172.35c-12.46,0-22.55-10.09-22.55-22.55v-331.27c0-12.46,10.09-22.55,22.55-22.55h331.27c12.46,0,22.55,10.09,22.55,22.55v331.27Z"/><path class="cls-2" d="M686.62,301.96h-20.66c0-75.17-28.76-145.84-80.99-198.98-52.18-53.09-121.54-82.33-195.3-82.33s-143.13,29.24-195.31,82.33c-52.23,53.14-80.99,123.8-80.99,198.98h-20.66c0-80.62,30.87-156.43,86.91-213.46C235.72,31.43,310.32,0,389.67,0s153.94,31.43,210.04,88.51c56.05,57.03,86.91,132.83,86.91,213.46Z"/><rect class="cls-2" x="597.79" y="298.8" width="157.93" height="201.79" rx="35.46" ry="35.46"/><path class="cls-2" d="M720.25,500.8h-87c-19.67,0-35.66-16-35.66-35.66v-130.87c0-19.67,16-35.66,35.66-35.66h87c19.67,0,35.66,16,35.66,35.66v130.87c0,19.67-16,35.66-35.66,35.66ZM633.25,299.01c-19.44,0-35.26,15.82-35.26,35.26v130.87c0,19.44,15.82,35.26,35.26,35.26h87c19.44,0,35.26-15.82,35.26-35.26v-130.87c0-19.44-15.82-35.26-35.26-35.26h-87Z"/><rect class="cls-2" x=".2" y="297.27" width="149.6" height="201.79" rx="34.51" ry="34.51"/><path class="cls-2" d="M115.28,499.26H34.71c-19.14,0-34.71-15.57-34.71-34.71v-132.77c0-19.14,15.57-34.71,34.71-34.71h80.57c19.14,0,34.71,15.57,34.71,34.71v132.77c0,19.14-15.57,34.71-34.71,34.71ZM34.71,297.46c-18.92,0-34.32,15.4-34.32,34.32v132.77c0,18.92,15.39,34.32,34.32,34.32h80.57c18.92,0,34.32-15.39,34.32-34.32v-132.77c0-18.92-15.39-34.32-34.32-34.32H34.71Z"/><path class="cls-2" d="M481.36,274.44H193.29c-8.62,0-15.62,7-15.62,15.62v288.07c0,8.62,7,15.62,15.62,15.62h288.07c8.64,0,15.62-7,15.62-15.62v-288.07c0-8.62-6.98-15.62-15.62-15.62ZM433.34,417.56h27.12v27.12h-27.12v-27.12ZM378.13,417.56h27.12v-27.14h27.12v27.14h-27.12v27.12h-27.12v-27.12ZM268.66,417.56h27.12v27.12h-27.12v-27.12ZM213.45,417.56h27.12v-27.14h27.12v27.14h-27.12v27.12h-27.12v-27.12ZM375.57,542.73h-76.25v-27.12h-26.92v-27.12h27.12v27.12h76.05v-27.12h27.12v27.12h-27.12v27.12Z"/></svg>