<svg version="1.1" id="Layer_1" xmlns="http://www.w3.org/2000/svg" xmlns:xlink="http://www.w3.org/1999/xlink" x="0px" y="0px"
	 width="100%" viewBox="0 0 2952 1510" enable-background="new 0 0 2952 1510" xml:space="preserve">
<path fill="#FFFFFF" opacity="1.000000" stroke="none" 
	d="
M1.999996,1044.000000 
	C2.000000,696.720093 2.000000,349.440155 2.000000,2.080119 
	C985.795227,2.080119 1969.590454,2.080119 2954.000000,2.080119 
	C2954.000000,456.058563 2954.000000,910.117432 2953.343262,1364.903564 
	C2951.997803,1364.500366 2951.446289,1363.254272 2950.601562,1362.256348 
	C2924.402344,1331.307373 2898.191895,1300.367676 2871.947266,1269.457153 
	C2813.433105,1200.539917 2754.791504,1131.730225 2696.497803,1062.627075 
	C2688.326904,1052.941284 2679.033203,1048.232910 2666.411377,1048.225952 
	C2549.766846,1048.161987 2433.122070,1047.871826 2316.477539,1047.661987 
	C2064.879150,1047.209351 1813.280762,1046.676514 1561.682129,1046.342529 
	C1310.712280,1046.009521 1059.742065,1045.800049 808.772095,1045.683472 
	C575.452637,1045.575073 342.133057,1045.717529 108.813614,1045.598511 
	C73.868866,1045.580688 38.924534,1044.737915 3.980167,1044.264404 
	C3.319036,1044.255493 2.660003,1044.091675 1.999996,1044.000000 
M972.034790,370.431854 
	C965.498657,338.120056 948.298584,312.871521 920.924927,294.777954 
	C895.659485,278.077942 867.572449,272.505524 837.986084,277.860138 
	C794.246460,285.776215 764.152893,311.067078 748.037537,352.579773 
	C745.264282,359.723633 743.527344,367.269806 740.893982,376.017944 
	C733.362671,323.251709 690.688049,282.070374 640.495117,276.123657 
	C592.754517,270.467468 526.987366,294.282654 509.091064,373.904694 
	C497.896606,310.343689 444.311920,274.522552 391.746521,275.536316 
	C340.267151,276.529144 289.056641,312.087189 278.874237,372.479675 
	C274.395477,399.043427 278.093781,424.979370 291.695709,448.776520 
	C309.952332,480.717133 337.545227,500.029877 375.504517,507.603729 
	C305.098053,523.358215 272.217102,580.323669 277.827301,636.206177 
	C282.881042,686.545532 319.131439,728.634949 374.605927,739.604126 
	C342.889832,746.629944 316.377106,761.667480 297.526245,788.607971 
	C278.387085,815.960510 272.169067,846.274414 278.461334,878.726929 
	C287.849609,927.146851 326.318848,964.498291 377.197937,971.428833 
	C408.071686,975.634277 436.796844,968.559082 462.075958,949.808411 
	C487.254761,931.132202 501.991516,905.649780 508.773010,873.151917 
	C514.931580,904.355408 528.406616,928.453552 551.504517,946.972107 
	C615.437683,998.230286 716.071045,969.631531 737.866211,883.153748 
	C738.560303,880.399963 739.478394,877.702637 740.885071,872.993591 
	C749.577820,925.801392 790.015137,971.993835 855.403870,973.131592 
	C910.938110,974.097839 958.582642,936.667297 971.126099,878.192444 
	C987.820068,937.679260 1025.855103,970.022644 1087.237305,973.549744 
	C1149.879639,969.121887 1187.957764,935.619873 1203.085449,873.399414 
	C1212.748413,927.238220 1254.552124,973.033691 1316.934937,972.686523 
	C1381.003662,972.330017 1419.410645,936.583191 1435.127441,874.208557 
	C1445.416138,929.598267 1488.768555,973.122803 1549.002197,972.744751 
	C1612.406738,972.346802 1650.621094,937.038635 1666.922119,875.555969 
	C1682.448730,945.682251 1741.391602,980.276978 1800.095947,971.713135 
	C1856.164917,963.533691 1899.024902,917.537048 1899.361450,856.830566 
	C1899.682251,798.971313 1859.269531,749.323975 1797.752930,740.953308 
	C1770.681274,737.269592 1744.719849,742.525879 1721.259277,757.346008 
	C1691.646118,776.052795 1674.351196,803.232239 1667.052979,839.055969 
	C1652.544189,780.922913 1618.300171,744.494202 1559.315186,740.982178 
	C1492.106934,736.980408 1452.088013,773.670044 1434.535400,837.967163 
	C1422.652222,785.201172 1390.850098,753.129211 1337.730591,740.907898 
	C1407.361572,727.526978 1442.211304,669.976746 1437.621338,614.565613 
	C1433.321655,562.660034 1395.156982,519.818909 1343.865967,510.208405 
	C1311.425049,504.129883 1281.031616,510.138580 1253.802856,529.526184 
	C1226.886108,548.691650 1211.527710,575.208069 1205.179199,607.487854 
	C1203.610718,603.287231 1202.788452,599.405212 1201.817017,595.560852 
	C1190.300659,549.986511 1151.035278,514.739075 1106.883423,508.369476 
	C1108.317383,507.654266 1109.681152,506.559631 1111.195557,506.280060 
	C1140.775024,500.819824 1164.303223,485.501038 1182.123779,461.664032 
	C1200.592896,436.959808 1208.103760,409.214661 1204.384644,378.226166 
	C1200.240723,343.695618 1183.992188,316.366943 1155.892456,296.789581 
	C1119.725708,271.591736 1080.459229,268.578583 1040.247437,286.062103 
	C1012.582153,298.090576 992.961548,318.851562 981.471863,346.903961 
	C978.101074,355.133759 975.359314,363.621155 972.034790,370.431854 
M2552.797363,376.293518 
	C2543.554199,366.767822 2534.626221,356.910065 2525.009033,347.778625 
	C2496.044922,320.277893 2462.126709,300.766052 2424.255371,288.651672 
	C2381.142578,274.860535 2337.057617,271.933868 2292.291016,279.727509 
	C2236.120117,289.506531 2188.109131,315.116516 2147.189453,354.290466 
	C2130.316406,370.443878 2116.090088,388.919891 2103.937988,408.911133 
	C2083.988281,441.729767 2071.109863,477.124817 2065.814209,515.186279 
	C2064.138672,527.229858 2063.055420,539.355896 2061.614258,552.220215 
	C2057.544189,552.220215 2054.273682,552.220093 2051.002930,552.220154 
	C2037.672485,552.220642 2024.339722,552.063904 2011.012085,552.256104 
	C1986.711182,552.606384 1975.806641,570.652710 1976.043091,587.506592 
	C1976.599121,627.156738 1976.592773,666.824829 1976.069458,706.475891 
	C1975.795166,727.255859 1990.822266,742.468567 2011.687500,741.918091 
	C2034.666504,741.311890 2057.673828,741.755981 2080.668701,741.805237 
	C2084.165283,741.812744 2087.661621,742.159485 2091.763672,742.382202 
	C2091.763672,757.491760 2091.140625,771.487183 2091.976074,785.395081 
	C2092.562988,795.167969 2089.220703,802.454651 2083.185303,809.680359 
	C2072.312500,822.696350 2062.071533,836.242188 2051.649170,849.630737 
	C2045.856201,857.071899 2040.610718,865.132080 2040.360229,874.741333 
	C2039.848145,894.378479 2038.902710,914.147949 2040.533447,933.662537 
	C2042.782959,960.584167 2067.301758,974.456238 2084.779785,974.419861 
	C2233.079834,974.111267 2381.380615,974.239258 2529.681396,974.250854 
	C2541.244141,974.251709 2551.197510,970.359375 2559.256592,962.035645 
	C2562.954834,958.215942 2566.565674,954.272827 2569.849365,950.097351 
	C2583.216553,933.099854 2596.322998,915.896790 2609.766357,898.960388 
	C2617.056641,889.776123 2621.404541,879.507324 2621.682617,867.879333 
	C2622.056885,852.225037 2622.179688,836.542419 2621.687988,820.894653 
	C2620.792236,792.381775 2599.468994,774.853088 2576.735840,773.752686 
	C2574.840332,773.660950 2572.959229,773.265686 2570.853271,772.982056 
	C2570.853271,763.192932 2570.853271,754.042297 2570.853271,743.779846 
	C2575.032471,743.779846 2578.605225,743.779907 2582.177979,743.779846 
	C2603.506592,743.779663 2624.835449,743.756897 2646.164062,743.785461 
	C2669.037842,743.816101 2682.364990,725.257507 2682.024902,707.928040 
	C2681.247070,668.285339 2681.793457,628.617004 2681.748291,588.959106 
	C2681.745117,585.987427 2681.691895,582.927185 2681.017090,580.059875 
	C2677.349609,564.481323 2665.910156,554.760803 2649.790771,554.028442 
	C2639.540039,553.562622 2629.251221,553.941284 2619.114258,553.941284 
	C2615.691162,531.958801 2613.079590,510.960083 2609.010742,490.247589 
	C2604.959473,469.622986 2597.207031,450.143646 2587.929443,431.216980 
	C2578.492188,411.964691 2566.830566,394.244751 2552.797363,376.293518 
z"/>
<path fill="#FFFFFF" opacity="1.000000" stroke="none" 
	d="
M2694.000000,1512.000000 
	C1796.666626,1512.000000 899.333313,1512.000000 2.000000,1512.000000 
	C2.000000,1452.464233 2.000000,1393.147949 2.933440,1333.011230 
	C125.461159,1332.720703 247.055222,1333.646851 368.649750,1333.713013 
	C933.239990,1334.020264 1497.830322,1334.098633 2062.420654,1334.237793 
	C2220.067627,1334.276733 2377.714844,1334.290405 2535.361572,1334.097290 
	C2542.757080,1334.088257 2547.755859,1336.124634 2552.208008,1342.133667 
	C2559.125244,1351.469849 2566.901367,1360.176636 2574.428711,1369.052612 
	C2609.701904,1410.645874 2645.054443,1452.171753 2680.266602,1493.816528 
	C2685.163574,1499.607910 2689.437744,1505.925781 2694.000000,1512.000000 
z"/>
<path fill="#58088D" opacity="1.000000" stroke="none" 
	d="
M1.999996,1044.937378 
	C2.660003,1044.091675 3.319036,1044.255493 3.980167,1044.264404 
	C38.924534,1044.737915 73.868866,1045.580688 108.813614,1045.598511 
	C342.133057,1045.717529 575.452637,1045.575073 808.772095,1045.683472 
	C1059.742065,1045.800049 1310.712280,1046.009521 1561.682129,1046.342529 
	C1813.280762,1046.676514 2064.879150,1047.209351 2316.477539,1047.661987 
	C2433.122070,1047.871826 2549.766846,1048.161987 2666.411377,1048.225952 
	C2679.033203,1048.232910 2688.326904,1052.941284 2696.497803,1062.627075 
	C2754.791504,1131.730225 2813.433105,1200.539917 2871.947266,1269.457153 
	C2898.191895,1300.367676 2924.402344,1331.307373 2950.601562,1362.256348 
	C2951.446289,1363.254272 2951.997803,1364.500366 2953.343262,1365.815430 
	C2954.000000,1396.708496 2954.000000,1427.416870 2953.313965,1458.995117 
	C2928.005859,1430.637573 2903.441650,1401.361084 2878.747803,1372.194336 
	C2838.589355,1324.761841 2798.348145,1277.399414 2758.137695,1230.010864 
	C2725.669434,1191.747070 2693.131104,1153.542358 2660.821777,1115.145020 
	C2657.518555,1111.219238 2654.337646,1109.536133 2649.130615,1109.515747 
	C2583.527100,1109.258667 2517.925293,1108.449463 2452.322021,1108.349976 
	C2218.375732,1107.995239 1984.428711,1107.942505 1750.482178,1107.618530 
	C1498.910034,1107.270020 1247.338135,1106.607300 995.765930,1106.330933 
	C669.168091,1105.972168 342.569977,1105.859497 15.971954,1105.641357 
	C12.972452,1105.639404 9.972200,1105.603394 6.973741,1105.659790 
	C5.314281,1105.690918 3.657816,1105.881348 2.000001,1106.000000 
	C2.000000,1085.958252 2.000000,1065.916382 1.999996,1044.937378 
z"/>
<path fill="#8A02E1" opacity="1.000000" stroke="none" 
	d="
M2954.000000,1482.000000 
	C2954.000000,1491.897095 2954.000000,1501.794312 2954.000000,1512.000000 
	C2935.959229,1512.000000 2917.916992,1512.000000 2898.624268,1511.410645 
	C2890.080078,1502.189209 2882.839600,1493.511597 2875.483887,1484.932495 
	C2834.159668,1436.737061 2792.777100,1388.591553 2751.473633,1340.378418 
	C2709.089844,1290.904419 2666.772705,1241.372925 2624.429199,1191.864258 
	C2621.148682,1188.028564 2617.851562,1185.481812 2611.966064,1185.468384 
	C2537.035400,1185.297485 2462.106445,1184.450562 2387.176025,1184.342529 
	C2141.247559,1183.988159 1895.318604,1183.961182 1649.390137,1183.629272 
	C1400.501465,1183.293457 1151.613159,1182.634033 902.724487,1182.318481 
	C632.468506,1181.975952 362.212189,1181.864868 91.956009,1181.658203 
	C65.628929,1181.638062 39.301804,1181.642334 12.974742,1181.671021 
	C9.316380,1181.674927 5.658243,1181.885254 2.000001,1182.000000 
	C2.000000,1162.624878 2.000000,1143.249756 2.931188,1122.820190 
	C248.464935,1121.960693 493.067596,1122.054932 737.669983,1122.378540 
	C986.233704,1122.707397 1234.796997,1123.359253 1483.360718,1123.691406 
	C1733.295654,1124.025391 1983.230713,1124.176147 2233.165771,1124.335815 
	C2364.471924,1124.419678 2495.778076,1124.440674 2627.083740,1124.216431 
	C2640.789307,1124.193115 2651.088135,1128.794678 2660.004150,1139.300171 
	C2710.334473,1198.603882 2761.037109,1257.591553 2811.597412,1316.700195 
	C2849.847168,1361.416626 2888.034424,1406.186401 2926.338379,1450.856445 
	C2935.375244,1461.395142 2944.769775,1471.627075 2954.000000,1482.000000 
z"/>
<path fill="#F15EFE" opacity="1.000000" stroke="none" 
	d="
M2876.000000,1512.000000 
	C2849.958252,1512.000000 2823.916260,1512.000000 2796.595215,1511.430908 
	C2773.036865,1484.848022 2750.737549,1458.851562 2728.484863,1432.814819 
	C2709.260010,1410.321045 2690.041016,1387.822266 2670.906006,1365.252319 
	C2643.388672,1332.795288 2615.793701,1300.401489 2588.600830,1267.674194 
	C2582.752441,1260.635620 2576.535156,1257.993530 2567.302002,1257.997925 
	C2323.353027,1258.116089 2079.403320,1258.264404 1835.455322,1257.686035 
	C1589.227173,1257.102295 1343.002686,1258.470947 1096.767700,1256.587646 
	C849.832703,1254.698853 602.873901,1255.902344 355.925507,1255.790405 
	C241.946884,1255.738647 127.968239,1255.779297 13.989610,1255.790771 
	C9.993066,1255.791138 5.996536,1255.927124 2.000000,1256.000000 
	C2.000000,1235.958252 2.000000,1215.916382 2.933562,1195.031372 
	C70.800728,1194.735474 137.733826,1195.673340 204.668015,1195.760254 
	C447.638794,1196.075317 690.610779,1195.760132 933.580750,1196.339233 
	C1179.500244,1196.925293 1425.416016,1195.568848 1671.342285,1197.440918 
	C1920.965942,1199.341187 2170.613525,1198.110596 2420.250488,1198.238525 
	C2476.244873,1198.267212 2532.243164,1198.596069 2588.231445,1198.004028 
	C2602.924561,1197.848511 2613.639648,1202.791138 2622.877686,1213.838379 
	C2646.560303,1242.159180 2670.791992,1270.020142 2694.673828,1298.175293 
	C2726.082764,1335.204346 2757.319092,1372.379517 2788.718506,1409.416626 
	C2817.751465,1443.662720 2846.901611,1477.809448 2876.000000,1512.000000 
z"/>
<path fill="#F4EC53" opacity="1.000000" stroke="none" 
	d="
M2694.937256,1512.000000 
	C2689.437744,1505.925781 2685.163574,1499.607910 2680.266602,1493.816528 
	C2645.054443,1452.171753 2609.701904,1410.645874 2574.428711,1369.052612 
	C2566.901367,1360.176636 2559.125244,1351.469849 2552.208008,1342.133667 
	C2547.755859,1336.124634 2542.757080,1334.088257 2535.361572,1334.097290 
	C2377.714844,1334.290405 2220.067627,1334.276733 2062.420654,1334.237793 
	C1497.830322,1334.098633 933.239990,1334.020264 368.649750,1333.713013 
	C247.055222,1333.646851 125.461159,1332.720703 2.933440,1332.095215 
	C2.000000,1312.624878 2.000000,1293.249756 2.933862,1273.027344 
	C5.534009,1272.196411 7.200272,1272.224609 8.866580,1272.227783 
	C553.748352,1273.229858 1098.630737,1270.884033 1643.514526,1273.507324 
	C1947.473755,1274.970581 2251.445801,1273.821655 2555.411621,1273.591919 
	C2568.177734,1273.582275 2577.860596,1277.550415 2585.933594,1287.201660 
	C2607.907471,1313.472412 2630.146484,1339.520996 2652.240479,1365.691650 
	C2688.062012,1408.122559 2723.889648,1450.548828 2759.611328,1493.063721 
	C2764.704834,1499.126221 2769.218262,1505.675781 2774.000000,1512.000000 
	C2747.958252,1512.000000 2721.916260,1512.000000 2694.937256,1512.000000 
z"/>
<path fill="#FAF6FC" opacity="1.000000" stroke="none" 
	d="
M2954.000000,1481.083984 
	C2944.769775,1471.627075 2935.375244,1461.395142 2926.338379,1450.856445 
	C2888.034424,1406.186401 2849.847168,1361.416626 2811.597412,1316.700195 
	C2761.037109,1257.591553 2710.334473,1198.603882 2660.004150,1139.300171 
	C2651.088135,1128.794678 2640.789307,1124.193115 2627.083740,1124.216431 
	C2495.778076,1124.440674 2364.471924,1124.419678 2233.165771,1124.335815 
	C1983.230713,1124.176147 1733.295654,1124.025391 1483.360718,1123.691406 
	C1234.796997,1123.359253 986.233704,1122.707397 737.669983,1122.378540 
	C493.067596,1122.054932 248.464935,1121.960693 2.931188,1121.882812 
	C2.000000,1117.258911 2.000000,1112.517700 2.000001,1106.888306 
	C3.657816,1105.881348 5.314281,1105.690918 6.973741,1105.659790 
	C9.972200,1105.603394 12.972452,1105.639404 15.971954,1105.641357 
	C342.569977,1105.859497 669.168091,1105.972168 995.765930,1106.330933 
	C1247.338135,1106.607300 1498.910034,1107.270020 1750.482178,1107.618530 
	C1984.428711,1107.942505 2218.375732,1107.995239 2452.322021,1108.349976 
	C2517.925293,1108.449463 2583.527100,1109.258667 2649.130615,1109.515747 
	C2654.337646,1109.536133 2657.518555,1111.219238 2660.821777,1115.145020 
	C2693.131104,1153.542358 2725.669434,1191.747070 2758.137695,1230.010864 
	C2798.348145,1277.399414 2838.589355,1324.761841 2878.747803,1372.194336 
	C2903.441650,1401.361084 2928.005859,1430.637573 2953.313965,1459.932373 
	C2954.000000,1466.722534 2954.000000,1473.445190 2954.000000,1481.083984 
z"/>
<path fill="#FFFCFD" opacity="1.000000" stroke="none" 
	d="
M2774.916016,1512.000000 
	C2769.218262,1505.675781 2764.704834,1499.126221 2759.611328,1493.063721 
	C2723.889648,1450.548828 2688.062012,1408.122559 2652.240479,1365.691650 
	C2630.146484,1339.520996 2607.907471,1313.472412 2585.933594,1287.201660 
	C2577.860596,1277.550415 2568.177734,1273.582275 2555.411621,1273.591919 
	C2251.445801,1273.821655 1947.473755,1274.970581 1643.514526,1273.507324 
	C1098.630737,1270.884033 553.748352,1273.229858 8.866580,1272.227783 
	C7.200272,1272.224609 5.534009,1272.196411 2.933862,1272.089966 
	C2.000000,1267.258911 2.000000,1262.517700 2.000000,1256.888306 
	C5.996536,1255.927124 9.993066,1255.791138 13.989610,1255.790771 
	C127.968239,1255.779297 241.946884,1255.738647 355.925507,1255.790405 
	C602.873901,1255.902344 849.832703,1254.698853 1096.767700,1256.587646 
	C1343.002686,1258.470947 1589.227173,1257.102295 1835.455322,1257.686035 
	C2079.403320,1258.264404 2323.353027,1258.116089 2567.302002,1257.997925 
	C2576.535156,1257.993530 2582.752441,1260.635620 2588.600830,1267.674194 
	C2615.793701,1300.401489 2643.388672,1332.795288 2670.906006,1365.252319 
	C2690.041016,1387.822266 2709.260010,1410.321045 2728.484863,1432.814819 
	C2750.737549,1458.851562 2773.036865,1484.848022 2795.657959,1511.430908 
	C2789.277344,1512.000000 2782.554932,1512.000000 2774.916016,1512.000000 
z"/>
<path fill="#FCF6FE" opacity="1.000000" stroke="none" 
	d="
M2876.916016,1512.000000 
	C2846.901611,1477.809448 2817.751465,1443.662720 2788.718506,1409.416626 
	C2757.319092,1372.379517 2726.082764,1335.204346 2694.673828,1298.175293 
	C2670.791992,1270.020142 2646.560303,1242.159180 2622.877686,1213.838379 
	C2613.639648,1202.791138 2602.924561,1197.848511 2588.231445,1198.004028 
	C2532.243164,1198.596069 2476.244873,1198.267212 2420.250488,1198.238525 
	C2170.613525,1198.110596 1920.965942,1199.341187 1671.342285,1197.440918 
	C1425.416016,1195.568848 1179.500244,1196.925293 933.580750,1196.339233 
	C690.610779,1195.760132 447.638794,1196.075317 204.668015,1195.760254 
	C137.733826,1195.673340 70.800728,1194.735474 2.933562,1194.093994 
	C2.000000,1190.571289 2.000000,1187.142578 2.000001,1182.856934 
	C5.658243,1181.885254 9.316380,1181.674927 12.974742,1181.671021 
	C39.301804,1181.642334 65.628929,1181.638062 91.956009,1181.658203 
	C362.212189,1181.864868 632.468506,1181.975952 902.724487,1182.318481 
	C1151.613159,1182.634033 1400.501465,1183.293457 1649.390137,1183.629272 
	C1895.318604,1183.961182 2141.247559,1183.988159 2387.176025,1184.342529 
	C2462.106445,1184.450562 2537.035400,1185.297485 2611.966064,1185.468384 
	C2617.851562,1185.481812 2621.148682,1188.028564 2624.429199,1191.864258 
	C2666.772705,1241.372925 2709.089844,1290.904419 2751.473633,1340.378418 
	C2792.777100,1388.591553 2834.159668,1436.737061 2875.483887,1484.932495 
	C2882.839600,1493.511597 2890.080078,1502.189209 2897.687012,1511.410645 
	C2891.277344,1512.000000 2884.554932,1512.000000 2876.916016,1512.000000 
z"/>
<path fill="#8A02E1" opacity="1.000000" stroke="none" 
	d="
M1106.014038,509.532715 
	C1151.035278,514.739075 1190.300659,549.986511 1201.817017,595.560852 
	C1202.788452,599.405212 1203.610718,603.287231 1205.179199,607.487854 
	C1211.527710,575.208069 1226.886108,548.691650 1253.802856,529.526184 
	C1281.031616,510.138580 1311.425049,504.129883 1343.865967,510.208405 
	C1395.156982,519.818909 1433.321655,562.660034 1437.621338,614.565613 
	C1442.211304,669.976746 1407.361572,727.526978 1337.730591,740.907898 
	C1390.850098,753.129211 1422.652222,785.201172 1434.535400,837.967163 
	C1452.088013,773.670044 1492.106934,736.980408 1559.315186,740.982178 
	C1618.300171,744.494202 1652.544189,780.922913 1667.052979,839.055969 
	C1674.351196,803.232239 1691.646118,776.052795 1721.259277,757.346008 
	C1744.719849,742.525879 1770.681274,737.269592 1797.752930,740.953308 
	C1859.269531,749.323975 1899.682251,798.971313 1899.361450,856.830566 
	C1899.024902,917.537048 1856.164917,963.533691 1800.095947,971.713135 
	C1741.391602,980.276978 1682.448730,945.682251 1666.922119,875.555969 
	C1650.621094,937.038635 1612.406738,972.346802 1549.002197,972.744751 
	C1488.768555,973.122803 1445.416138,929.598267 1435.127441,874.208557 
	C1419.410645,936.583191 1381.003662,972.330017 1316.934937,972.686523 
	C1254.552124,973.033691 1212.748413,927.238220 1203.085449,873.399414 
	C1187.957764,935.619873 1149.879639,969.121887 1087.237305,973.549744 
	C1025.855103,970.022644 987.820068,937.679260 971.126099,878.192444 
	C958.582642,936.667297 910.938110,974.097839 855.403870,973.131592 
	C790.015137,971.993835 749.577820,925.801392 740.885071,872.993591 
	C739.478394,877.702637 738.560303,880.399963 737.866211,883.153748 
	C716.071045,969.631531 615.437683,998.230286 551.504517,946.972107 
	C528.406616,928.453552 514.931580,904.355408 508.773010,873.151917 
	C501.991516,905.649780 487.254761,931.132202 462.075958,949.808411 
	C436.796844,968.559082 408.071686,975.634277 377.197937,971.428833 
	C326.318848,964.498291 287.849609,927.146851 278.461334,878.726929 
	C272.169067,846.274414 278.387085,815.960510 297.526245,788.607971 
	C316.377106,761.667480 342.889832,746.629944 374.605927,739.604126 
	C319.131439,728.634949 282.881042,686.545532 277.827301,636.206177 
	C272.217102,580.323669 305.098053,523.358215 375.504517,507.603729 
	C337.545227,500.029877 309.952332,480.717133 291.695709,448.776520 
	C278.093781,424.979370 274.395477,399.043427 278.874237,372.479675 
	C289.056641,312.087189 340.267151,276.529144 391.746521,275.536316 
	C444.311920,274.522552 497.896606,310.343689 509.091064,373.904694 
	C526.987366,294.282654 592.754517,270.467468 640.495117,276.123657 
	C690.688049,282.070374 733.362671,323.251709 740.893982,376.017944 
	C743.527344,367.269806 745.264282,359.723633 748.037537,352.579773 
	C764.152893,311.067078 794.246460,285.776215 837.986084,277.860138 
	C867.572449,272.505524 895.659485,278.077942 920.924927,294.777954 
	C948.298584,312.871521 965.498657,338.120056 972.028076,371.989197 
	C972.147461,378.702515 972.239075,383.859619 972.413025,389.013947 
	C972.512634,391.965424 972.876892,394.911865 972.888245,397.861481 
	C972.904480,402.062469 972.705872,406.264313 972.495850,411.260315 
	C961.259766,466.456970 927.056519,497.414246 872.602295,509.028717 
	C899.480591,513.451782 921.583862,524.500916 939.914856,543.256042 
	C958.230896,561.995850 968.140442,584.694946 972.581055,610.683594 
	C973.160706,609.774475 973.392273,609.570068 973.424988,609.337708 
	C980.339417,560.115295 1015.125427,521.815857 1062.880249,510.838409 
	C1066.688965,509.962891 1070.468384,508.958923 1075.166016,508.170990 
	C1086.051758,508.729126 1096.032837,509.130920 1106.014038,509.532715 
M1062.298096,738.158875 
	C1011.777832,724.409363 982.671326,691.120544 972.715088,639.211609 
	C961.623962,695.331299 928.387268,728.889038 871.847351,740.976746 
	C922.449219,748.450134 961.010010,785.393188 971.063721,835.091675 
	C972.193481,831.856445 973.214478,829.450073 973.879150,826.949036 
	C980.404907,802.391968 993.635254,782.212830 1013.154968,766.000977 
	C1028.063965,753.618469 1045.258179,746.216003 1065.450317,742.101990 
	C1067.363281,741.782471 1069.276367,741.462891 1071.189331,741.143311 
	C1071.129028,740.590332 1071.068848,740.037354 1071.008545,739.484436 
	C1068.606689,739.155151 1066.204712,738.825928 1062.298096,738.158875 
M1204.716553,639.502075 
	C1194.762329,695.565979 1160.917847,728.521545 1104.790771,740.907898 
	C1158.674683,752.723511 1190.401001,785.224670 1202.840576,839.301575 
	C1215.725708,783.732483 1248.333008,751.506897 1301.986816,740.803284 
	C1301.342285,740.307190 1300.892822,739.760864 1300.321899,739.560364 
	C1298.778442,739.018188 1297.199585,738.553711 1295.606323,738.179993 
	C1263.240601,730.589600 1238.554565,712.542969 1221.185913,684.174011 
	C1212.510864,670.004822 1208.279785,654.430908 1204.716553,639.502075 
M673.001221,517.792175 
	C710.474976,535.717285 732.040710,566.003296 740.796143,606.255371 
	C745.118347,580.527283 756.569153,558.972046 774.491333,541.226379 
	C792.471558,523.423279 814.494263,512.746582 842.156067,508.841400 
	C785.387817,496.932983 752.765442,463.578064 740.901978,407.036621 
	C738.488708,426.111145 732.442444,441.154205 723.621338,455.065277 
	C714.590576,469.306885 702.786804,480.841125 688.663452,490.124542 
	C675.212830,498.965759 660.046082,503.610840 643.475098,507.856720 
	C654.018066,511.312897 662.831299,514.202026 673.001221,517.792175 
M776.826721,710.221558 
	C757.846619,691.754700 745.660400,669.611877 740.632690,643.073364 
	C727.907593,695.284729 696.359253,728.087646 640.805176,739.755005 
	C696.791504,751.960510 728.977173,785.161865 740.699890,840.093079 
	C750.216125,785.547668 789.497498,749.064758 839.022827,740.724182 
	C816.103271,736.025024 795.427429,726.791748 776.826721,710.221558 
M510.380707,598.658203 
	C523.207458,550.487793 553.476624,520.345520 602.451843,509.467529 
	C603.534851,509.226959 604.413269,508.065552 605.560913,507.203094 
	C552.875366,495.357086 521.641296,462.639526 509.446655,409.568848 
	C497.518951,463.388428 465.798462,495.231812 413.600464,507.490265 
	C425.513092,512.056519 436.684235,515.792969 447.379944,520.589661 
	C458.387878,525.526245 468.335754,532.533020 476.109802,541.792664 
	C483.767456,550.913696 491.495026,560.292236 497.183075,570.659912 
	C502.653381,580.630676 505.551361,592.012695 509.434570,602.387085 
	C509.566895,601.926819 509.843018,600.966492 510.380707,598.658203 
M514.251831,662.471436 
	C512.494812,656.421387 510.737793,650.371399 508.831116,643.805969 
	C503.781219,668.489441 493.094818,689.726135 475.330872,707.264343 
	C457.810669,724.561829 436.397217,734.460571 412.666504,739.964355 
	C465.087097,752.554016 496.593567,785.012939 508.376709,835.630981 
	C512.319214,824.856995 515.720642,813.359009 520.691528,802.585083 
	C525.849548,791.405396 533.469666,781.682251 542.367554,772.973572 
	C551.007996,764.516968 560.368652,757.039368 571.401184,752.207153 
	C582.301086,747.433105 593.659729,743.706421 605.425781,739.291870 
	C561.377991,729.803894 530.956787,705.410095 514.251831,662.471436 
M1119.653931,874.997742 
	C1119.653931,886.225647 1119.653931,897.453613 1119.653931,909.042847 
	C1128.173096,909.042847 1135.603882,909.042847 1143.238647,909.042847 
	C1143.238647,873.934387 1143.238647,839.491028 1143.238647,804.613281 
	C1130.448608,804.613281 1118.288086,804.613281 1105.550415,804.613281 
	C1098.794556,823.579712 1092.120605,842.315979 1084.750244,863.007568 
	C1077.210815,842.320068 1070.310425,823.385925 1063.565430,804.878174 
	C1050.211182,804.878174 1037.741333,804.878174 1025.223389,804.878174 
	C1025.223389,840.070740 1025.223389,874.515381 1025.223389,909.168579 
	C1033.114136,909.168579 1040.295166,909.168579 1048.642090,909.168579 
	C1048.642090,883.744385 1048.642090,858.821472 1048.642090,833.898560 
	C1049.306274,833.806580 1049.970459,833.714661 1050.634644,833.622681 
	C1058.385864,855.045654 1066.137085,876.468567 1073.890869,897.898560 
	C1080.894897,897.898560 1087.176880,897.898560 1094.273804,897.898560 
	C1102.026367,876.330322 1109.796753,854.712402 1117.567139,833.094482 
	C1118.262695,833.253601 1118.958130,833.412720 1119.653687,833.571838 
	C1119.653687,846.714355 1119.653687,859.856873 1119.653931,874.997742 
M795.818665,876.992310 
	C795.818665,886.893982 795.818665,896.795593 795.818665,906.962402 
	C804.361084,906.962402 811.777222,906.962402 819.995178,906.962402 
	C819.995178,881.498413 819.995178,856.757935 819.995178,832.017517 
	C820.549255,831.915283 821.103271,831.813110 821.657349,831.710876 
	C829.395996,853.092102 837.134644,874.473328 844.796204,895.641602 
	C852.215698,895.641602 858.767029,895.641602 865.408020,895.641602 
	C873.217712,873.847229 880.869019,852.494690 888.520325,831.142212 
	C889.295105,831.307434 890.069824,831.472656 890.844604,831.637878 
	C890.844604,856.801514 890.844604,881.965149 890.844604,907.165283 
	C899.064392,907.165283 906.270691,907.165283 914.022827,907.165283 
	C914.022827,872.167175 914.022827,837.703552 914.022827,802.689209 
	C901.324524,802.689209 889.130432,802.689209 876.703735,802.689209 
	C869.178772,821.237976 863.942444,840.556091 855.420105,860.435547 
	C847.904846,839.658142 841.141296,820.958801 834.539978,802.708008 
	C821.195312,802.708008 808.996460,802.708008 795.818604,802.708008 
	C795.818604,827.174133 795.818604,851.084961 795.818665,876.992310 
M399.161285,667.036621 
	C400.726807,663.785767 402.584076,660.640686 403.808319,657.266052 
	C409.712067,640.992126 415.421600,624.647888 421.265961,608.352173 
	C422.090515,606.053040 423.277313,603.883789 424.296417,601.654419 
	C424.837128,601.789246 425.377808,601.924011 425.918518,602.058777 
	C425.918518,627.171265 425.918518,652.283752 425.918518,677.681458 
	C434.167633,677.681458 441.602997,677.681458 449.328369,677.681458 
	C449.328369,642.864197 449.328369,608.700439 449.328369,574.119751 
	C436.348969,574.119751 423.909393,574.119751 411.366791,574.119751 
	C404.625458,593.033875 398.088226,611.375305 390.716400,632.058411 
	C383.128082,611.152405 376.362183,592.512207 369.689392,574.128540 
	C356.382721,574.128540 343.898773,574.128540 331.079956,574.128540 
	C331.079956,608.997498 331.079956,643.164551 331.079956,677.627136 
	C339.083893,677.627136 346.516571,677.627136 354.731262,677.627136 
	C354.731262,652.495789 354.731262,628.057434 354.731262,603.619080 
	C355.420319,603.458130 356.109344,603.297180 356.798401,603.136169 
	C364.520752,624.441833 372.243103,645.747437 380.085846,667.385254 
	C386.293671,667.385254 391.920105,667.385254 399.161285,667.036621 
M1538.513672,820.406189 
	C1535.289307,815.429016 1532.064819,810.451782 1529.177490,805.994873 
	C1519.345215,805.994873 1510.465088,805.994873 1501.696777,805.994873 
	C1499.686279,817.419006 1500.119751,902.819336 1502.101929,909.670959 
	C1509.630005,909.670959 1517.132202,909.670959 1525.483154,909.670959 
	C1525.483154,898.423950 1525.483276,887.821594 1525.483276,877.219299 
	C1525.483276,866.405090 1525.483154,855.590881 1525.483154,844.776672 
	C1529.142456,846.856750 1531.063721,849.355713 1532.742065,852.008240 
	C1543.784912,869.460449 1554.708496,886.988708 1565.863037,904.368958 
	C1567.351196,906.687500 1569.860352,909.891724 1572.004517,909.976868 
	C1580.471924,910.313293 1589.090210,911.422302 1597.398315,909.377869 
	C1597.398315,874.604919 1597.398315,840.439392 1597.398315,806.178894 
	C1589.328247,806.178894 1581.896851,806.178894 1573.350708,806.178894 
	C1573.350708,828.893127 1573.350708,850.871521 1573.350708,872.849915 
	C1572.791870,872.949341 1572.232910,873.048706 1571.674072,873.148132 
	C1560.891846,855.971924 1550.109741,838.795776 1538.513672,820.406189 
M817.677551,678.241577 
	C832.636047,678.261658 847.605530,678.653931 862.550598,678.215942 
	C885.799561,677.534485 903.429871,663.989746 909.048706,642.911133 
	C912.102173,631.456299 912.042664,619.893555 908.837341,608.440735 
	C904.598083,593.293274 895.134949,582.610901 880.266235,577.588562 
	C873.465576,575.291382 866.060547,574.065430 858.873230,573.781311 
	C844.368774,573.207764 829.825745,573.610474 815.085083,573.610474 
	C814.837097,576.100220 814.537720,577.713684 814.536194,579.327454 
	C814.507019,609.910889 814.484497,640.494446 814.570984,671.077637 
	C814.577209,673.279724 815.431213,675.479492 817.677551,678.241577 
M585.516785,897.494995 
	C599.447876,910.167725 616.074036,912.914978 633.947449,910.170288 
	C654.737976,906.977661 668.730347,895.274719 673.813660,874.774109 
	C675.931030,866.234680 676.331299,856.929199 675.672852,848.109314 
	C674.079041,826.760437 660.921204,811.215332 640.905640,805.266113 
	C618.606628,798.638306 594.202393,804.992554 581.618958,820.833252 
	C579.563049,823.421387 577.709045,826.250061 576.227600,829.201477 
	C565.895203,849.785950 568.422668,880.728088 585.516785,897.494995 
M1361.859497,890.661987 
	C1368.017822,881.954102 1370.725220,871.992859 1371.286133,861.599548 
	C1372.576416,837.692078 1364.026855,818.006897 1344.766357,808.739075 
	C1327.675659,800.515259 1309.764038,800.256775 1292.644287,808.340271 
	C1273.010620,817.610779 1265.706909,834.762817 1265.393555,855.654968 
	C1265.069946,877.222290 1271.851318,895.103088 1291.980469,905.456360 
	C1310.390381,914.925171 1344.496704,914.449036 1361.859497,890.661987 
M593.292969,676.342651 
	C615.782166,676.342651 638.271301,676.342651 660.696411,676.342651 
	C660.696411,668.722778 660.696411,662.619446 660.696411,655.643677 
	C642.724060,655.643677 625.527405,655.643677 608.337524,655.643677 
	C608.337524,647.347656 608.337524,639.954834 608.337524,632.028137 
	C616.468384,632.028137 623.761169,632.077698 631.052917,632.014404 
	C638.536072,631.949402 646.018250,631.774109 653.517944,631.646790 
	C653.517944,625.020447 653.517944,619.740784 653.517944,613.350159 
	C638.372375,613.350159 623.551208,613.350159 608.120117,613.350159 
	C608.120117,605.808411 608.120117,599.381104 608.120117,591.942749 
	C625.182129,591.942749 641.663940,591.942749 658.645386,591.942749 
	C658.645386,584.770691 658.645386,578.605713 658.645386,571.300781 
	C633.171570,571.221252 608.129700,571.101562 583.075928,571.337646 
	C583.075928,606.989685 583.075928,641.164429 583.075928,675.786987 
	C586.194153,675.995850 588.782715,676.169189 593.292969,676.342651 
M1737.531372,881.728943 
	C1734.896118,882.237366 1734.633301,883.803650 1735.270752,886.138062 
	C1737.943604,895.924377 1744.585571,902.154907 1753.515381,906.007446 
	C1765.057129,910.986877 1777.266602,912.708435 1789.667847,910.842896 
	C1796.490967,909.816406 1803.526489,908.276550 1809.716187,905.370544 
	C1822.153320,899.531189 1827.607666,887.269348 1825.985596,871.839172 
	C1824.702881,859.637451 1817.443970,851.827087 1803.686279,848.170471 
	C1799.843140,847.149048 1795.867676,846.605713 1791.936768,845.938904 
	C1785.384033,844.827393 1778.740845,844.127747 1772.279541,842.633423 
	C1765.703979,841.112793 1762.958740,837.717529 1762.971924,832.633667 
	C1762.986084,827.193542 1766.601929,823.446533 1773.108276,822.129883 
	C1786.488892,819.422302 1792.949097,822.529053 1800.001953,835.377502 
	C1807.204346,834.037781 1814.548828,832.671631 1822.198853,831.248657 
	C1820.625244,819.193542 1814.172607,811.986145 1804.541382,807.763611 
	C1788.879150,800.896912 1772.742432,800.898560 1756.927612,807.079041 
	C1744.570923,811.907959 1738.262695,822.944824 1738.868164,836.506836 
	C1739.475464,850.112000 1745.832642,858.024536 1759.772095,862.297058 
	C1762.617188,863.169128 1765.572266,863.736023 1768.512207,864.234375 
	C1776.381714,865.568298 1784.335083,866.484558 1792.132324,868.143982 
	C1799.205322,869.649231 1802.007080,872.992065 1802.243652,878.619202 
	C1802.512573,885.017090 1798.935059,889.605713 1792.117676,891.607300 
	C1777.304565,895.956421 1765.561035,891.389221 1757.201904,877.547241 
	C1751.304565,878.785339 1745.159546,880.075439 1737.531372,881.728943 
M811.791626,367.356445 
	C808.150513,384.237244 807.667969,401.080841 814.075867,417.389435 
	C820.948792,434.881592 834.685242,442.852936 853.029297,443.088104 
	C871.241943,443.321564 885.811340,436.349426 892.929504,418.875214 
	C901.024902,399.001923 900.929932,378.554749 892.738464,358.645325 
	C887.432983,345.750397 877.272705,338.208862 863.426514,335.761597 
	C841.639648,331.910889 819.657043,339.998260 811.791626,367.356445 
M341.582855,842.971680 
	C341.159882,849.917297 339.859070,856.942932 340.483582,863.793091 
	C342.151581,882.087952 349.764618,897.379211 367.143829,905.428467 
	C385.718811,914.031555 404.719391,913.475037 422.929169,904.003235 
	C433.900085,898.296631 441.201477,889.198120 444.733398,876.122986 
	C436.208099,873.966125 428.597168,872.040527 420.693146,870.040833 
	C419.356018,872.498535 418.279968,874.501221 417.181427,876.491516 
	C411.124695,887.464478 401.496826,891.370422 389.509552,890.086304 
	C377.969452,888.850159 370.831177,882.094299 367.437195,871.248291 
	C364.585419,862.134949 364.618530,852.793762 366.849243,843.643921 
	C369.826294,831.432800 378.183655,824.622009 390.071106,823.809204 
	C403.593506,822.884583 411.326477,827.515686 416.842712,839.851440 
	C417.497803,841.316284 418.120331,842.795654 419.106049,845.072327 
	C427.349548,843.276978 435.222198,841.562317 443.172058,839.830933 
	C440.888153,825.654297 433.711121,816.570190 422.901337,810.076050 
	C414.078247,804.775513 404.268097,802.910217 394.197418,802.849121 
	C364.103699,802.666443 346.756439,819.010498 341.582855,842.971680 
M1302.331421,587.257019 
	C1290.579468,617.183044 1278.827515,647.109009 1266.834717,677.648315 
	C1276.385254,677.648315 1284.525879,677.648315 1292.627563,677.648315 
	C1295.489746,670.290344 1298.119873,663.528809 1300.691895,656.916626 
	C1315.870483,656.916626 1330.397095,656.916626 1344.946045,656.916626 
	C1347.770264,664.174866 1350.400391,670.934448 1353.002563,677.621948 
	C1361.538696,677.621948 1369.602051,677.621948 1378.787231,677.621948 
	C1364.890015,642.385803 1351.386963,608.148987 1337.695435,573.434448 
	C1333.552246,573.434448 1329.927246,573.434448 1326.302246,573.434448 
	C1320.348511,573.434448 1314.394775,573.434448 1308.132324,573.434448 
	C1306.261963,577.906311 1304.608154,581.860474 1302.331421,587.257019 
M370.641510,369.389984 
	C374.995972,370.122559 375.367188,366.836884 376.167450,363.944122 
	C379.590668,351.570251 396.083069,349.758240 404.477081,355.089417 
	C406.952820,356.661774 409.021576,360.089264 409.707062,363.032227 
	C411.560669,370.990234 406.574127,377.361816 398.059082,378.223969 
	C393.197662,378.716156 388.245575,378.313049 383.053436,378.313049 
	C383.053436,385.347870 383.053436,391.067291 383.053436,397.692932 
	C389.430817,397.692932 395.071930,397.349792 400.654175,397.776672 
	C408.243134,398.357025 411.809967,401.990875 412.427734,408.788330 
	C413.164337,416.893372 410.099274,421.801147 402.842163,424.136566 
	C388.768066,428.665741 378.739471,423.637970 372.039948,408.123810 
	C364.890015,409.229248 357.551025,410.363953 349.926117,411.542816 
	C350.814331,424.846100 357.175293,433.264587 367.973785,438.000458 
	C384.268463,445.146759 400.984589,445.141815 417.497284,438.610016 
	C425.555176,435.422607 431.456818,429.694305 434.318726,421.238159 
	C436.525208,414.718658 436.597046,408.241119 434.443268,401.654236 
	C431.926056,393.955994 426.111694,389.643494 418.320679,386.793457 
	C419.963104,385.498108 420.633545,384.689270 421.491730,384.334015 
	C436.889191,377.959534 438.500458,351.299591 420.486053,340.632141 
	C405.212555,331.587738 378.624634,332.683655 364.375580,343.404266 
	C356.992737,348.958893 351.948883,355.978882 351.998474,366.452942 
	C358.009979,367.377777 363.540894,368.228638 370.641510,369.389984 
M654.380310,383.465118 
	C657.191956,376.719604 659.765930,369.862152 662.875671,363.256989 
	C666.754639,355.017975 666.111938,346.682556 664.898926,338.076233 
	C639.912903,338.076233 615.481201,338.076233 590.678589,338.076233 
	C590.678589,344.862122 590.678589,350.997375 590.678589,358.454590 
	C607.483276,358.454590 623.797119,358.454590 641.607788,358.454590 
	C629.284302,387.146332 617.680115,414.163605 605.754517,441.928986 
	C614.465576,441.928986 622.007324,441.928986 630.118591,441.928986 
	C638.058350,422.874756 645.968140,403.892365 654.380310,383.465118 
M1099.526245,589.254700 
	C1099.526245,584.329163 1099.526245,579.403687 1099.526245,573.830688 
	C1090.935669,573.830688 1083.168701,573.830688 1075.086060,573.830688 
	C1075.086060,608.780945 1075.086060,643.138062 1075.086060,678.273560 
	C1083.440674,678.030151 1091.203613,679.204102 1099.525879,677.415039 
	C1099.525879,648.222046 1099.525879,619.704590 1099.526245,589.254700 
z"/>
<path fill="#F1ED54" opacity="1.000000" stroke="none" 
	d="
M2553.218262,376.868896 
	C2566.830566,394.244751 2578.492188,411.964691 2587.929443,431.216980 
	C2597.207031,450.143646 2604.959473,469.622986 2609.010742,490.247589 
	C2613.079590,510.960083 2615.691162,531.958801 2619.114258,553.941284 
	C2629.251221,553.941284 2639.540039,553.562622 2649.790771,554.028442 
	C2665.910156,554.760803 2677.349609,564.481323 2681.017090,580.059875 
	C2681.691895,582.927185 2681.745117,585.987427 2681.748291,588.959106 
	C2681.793457,628.617004 2681.247070,668.285339 2682.024902,707.928040 
	C2682.364990,725.257507 2669.037842,743.816101 2646.164062,743.785461 
	C2624.835449,743.756897 2603.506592,743.779663 2582.177979,743.779846 
	C2578.605225,743.779907 2575.032471,743.779846 2570.853271,743.779846 
	C2570.853271,754.042297 2570.853271,763.192932 2570.853271,772.982056 
	C2572.959229,773.265686 2574.840332,773.660950 2576.735840,773.752686 
	C2599.468994,774.853088 2620.792236,792.381775 2621.687988,820.894653 
	C2622.179688,836.542419 2622.056885,852.225037 2621.682617,867.879333 
	C2621.404541,879.507324 2617.056641,889.776123 2609.766357,898.960388 
	C2596.322998,915.896790 2583.216553,933.099854 2569.849365,950.097351 
	C2566.565674,954.272827 2562.954834,958.215942 2559.256592,962.035645 
	C2551.197510,970.359375 2541.244141,974.251709 2529.681396,974.250854 
	C2381.380615,974.239258 2233.079834,974.111267 2084.779785,974.419861 
	C2067.301758,974.456238 2042.782959,960.584167 2040.533447,933.662537 
	C2038.902710,914.147949 2039.848145,894.378479 2040.360229,874.741333 
	C2040.610718,865.132080 2045.856201,857.071899 2051.649170,849.630737 
	C2062.071533,836.242188 2072.312500,822.696350 2083.185303,809.680359 
	C2089.220703,802.454651 2092.562988,795.167969 2091.976074,785.395081 
	C2091.140625,771.487183 2091.763672,757.491760 2091.763672,742.382202 
	C2087.661621,742.159485 2084.165283,741.812744 2080.668701,741.805237 
	C2057.673828,741.755981 2034.666504,741.311890 2011.687500,741.918091 
	C1990.822266,742.468567 1975.795166,727.255859 1976.069458,706.475891 
	C1976.592773,666.824829 1976.599121,627.156738 1976.043091,587.506592 
	C1975.806641,570.652710 1986.711182,552.606384 2011.012085,552.256104 
	C2024.339722,552.063904 2037.672485,552.220642 2051.002930,552.220154 
	C2054.273682,552.220093 2057.544189,552.220215 2061.614258,552.220215 
	C2063.055420,539.355896 2064.138672,527.229858 2065.814209,515.186279 
	C2071.109863,477.124817 2083.988281,441.729767 2103.937988,408.911133 
	C2116.090088,388.919891 2130.316406,370.443878 2147.189453,354.290466 
	C2188.109131,315.116516 2236.120117,289.506531 2292.291016,279.727509 
	C2337.057617,271.933868 2381.142578,274.860535 2424.255371,288.651672 
	C2462.126709,300.766052 2496.044922,320.277893 2525.009033,347.778625 
	C2534.626221,356.910065 2543.554199,366.767822 2553.218262,376.868896 
M2209.129639,332.063568 
	C2128.713623,383.059296 2088.012695,456.804169 2082.194580,551.595581 
	C2086.005859,551.595581 2088.462646,551.595581 2091.771729,551.595581 
	C2091.771729,541.058289 2091.956543,531.103760 2091.731201,521.158569 
	C2091.322510,503.119171 2099.052734,490.088043 2114.565186,480.890594 
	C2138.610840,466.633636 2162.335693,451.834900 2186.191895,437.258179 
	C2193.429443,432.835815 2201.149414,430.200745 2209.753906,430.203461 
	C2316.742920,430.237366 2423.731934,430.199524 2530.720947,430.246246 
	C2554.875488,430.256805 2571.329590,450.007019 2570.476318,469.981476 
	C2569.438721,494.267975 2570.211182,518.632690 2570.251953,542.963379 
	C2570.257324,546.202515 2570.562744,549.441101 2570.753906,553.159546 
	C2579.915771,553.159546 2588.382080,553.159546 2597.911865,553.159546 
	C2595.854004,536.681580 2594.743164,520.764160 2591.758789,505.206085 
	C2582.845703,458.736359 2562.149902,417.780457 2530.901367,382.391357 
	C2497.937500,345.059570 2457.376221,319.322571 2409.415039,305.480133 
	C2372.395264,294.795502 2334.936768,292.946777 2296.942871,299.367126 
	C2266.037598,304.589600 2237.369141,315.645081 2209.129639,332.063568 
M2116.209473,737.000000 
	C2116.209229,753.991455 2116.208740,770.982971 2116.209229,787.974426 
	C2116.209717,801.967468 2115.977051,815.965393 2116.272461,829.952209 
	C2116.635010,847.122559 2125.381836,855.570496 2142.362061,855.781189 
	C2143.694580,855.797729 2145.027344,855.783752 2146.360107,855.783752 
	C2242.978516,855.783752 2339.596924,855.784058 2436.215332,855.782104 
	C2438.880371,855.782043 2441.563477,855.952393 2444.207520,855.710266 
	C2452.551758,854.946350 2460.142578,852.222046 2463.767090,844.094299 
	C2465.574463,840.041260 2466.138916,835.139893 2466.144531,830.620850 
	C2466.271729,730.670959 2466.242188,630.720825 2466.239258,530.770752 
	C2466.239258,528.438965 2466.370850,526.091797 2466.156738,523.778076 
	C2465.245850,513.946594 2457.772705,506.629425 2447.853027,505.814209 
	C2445.866455,505.650940 2443.856934,505.760468 2441.857910,505.760437 
	C2341.574707,505.758942 2241.291260,505.759186 2141.008057,505.759583 
	C2139.675537,505.759583 2138.340820,505.719055 2137.010498,505.774139 
	C2127.682373,506.160278 2120.547119,511.286407 2117.844482,520.373047 
	C2116.640869,524.419678 2116.280273,528.845947 2116.274414,533.100891 
	C2116.182129,600.400513 2116.209717,667.700256 2116.209473,737.000000 
M2347.000000,955.781738 
	C2392.636719,955.781799 2438.273438,955.782104 2483.910156,955.781799 
	C2497.234863,955.781677 2510.563965,956.000244 2523.882812,955.723572 
	C2540.600830,955.376221 2551.071533,945.668091 2551.656982,929.374756 
	C2552.194824,914.403992 2552.230469,899.380554 2551.644775,884.413330 
	C2551.001709,867.983276 2541.613525,859.241394 2525.125488,857.837708 
	C2509.817139,856.534424 2495.352051,857.868042 2483.010986,868.412415 
	C2480.264893,870.758484 2477.039307,872.964600 2473.654541,874.054932 
	C2466.472168,876.368347 2459.045410,879.496399 2451.709473,879.520630 
	C2345.779785,879.870178 2239.849121,879.814819 2133.918457,879.695190 
	C2119.595459,879.679016 2107.256104,874.916321 2098.762451,862.428284 
	C2097.417480,860.450562 2094.966797,858.418701 2092.723877,857.986328 
	C2076.038574,854.769775 2060.872559,866.532227 2060.327393,883.464783 
	C2059.834473,898.772095 2059.804199,914.122864 2060.345703,929.427002 
	C2060.910156,945.376831 2071.072510,954.921936 2087.169922,955.752747 
	C2089.828125,955.889893 2092.498779,955.781555 2095.163818,955.781555 
	C2178.442627,955.781860 2261.721191,955.781555 2347.000000,955.781738 
z"/>
<path fill="#F05DFD" opacity="1.000000" stroke="none" 
	d="
M972.599060,410.465790 
	C972.705872,406.264313 972.904480,402.062469 972.888245,397.861481 
	C972.876892,394.911865 972.512634,391.965424 972.413025,389.013947 
	C972.239075,383.859619 972.147461,378.702515 972.175293,372.768524 
	C975.359314,363.621155 978.101074,355.133759 981.471863,346.903961 
	C992.961548,318.851562 1012.582153,298.090576 1040.247437,286.062103 
	C1080.459229,268.578583 1119.725708,271.591736 1155.892456,296.789581 
	C1183.992188,316.366943 1200.240723,343.695618 1204.384644,378.226166 
	C1208.103760,409.214661 1200.592896,436.959808 1182.123779,461.664032 
	C1164.303223,485.501038 1140.775024,500.819824 1111.195557,506.280060 
	C1109.681152,506.559631 1108.317383,507.654266 1106.448730,508.951111 
	C1096.032837,509.130920 1086.051758,508.729126 1074.355713,508.185852 
	C1070.430420,507.413391 1068.246460,506.662170 1066.005615,506.169342 
	C1027.228394,497.641449 999.009399,475.780029 982.699341,439.407867 
	C978.533875,430.118652 975.923767,420.132019 972.599060,410.465790 
M1124.356812,383.000580 
	C1124.165161,370.191620 1124.768066,357.350891 1123.990234,344.883545 
	C1115.352905,344.883545 1107.899902,344.883545 1099.969238,344.883545 
	C1099.969238,366.231812 1100.048218,386.835571 1099.904419,407.437775 
	C1099.874634,411.708557 1099.585693,416.136627 1098.417969,420.205750 
	C1096.288330,427.627319 1091.676147,430.360687 1083.253296,430.275970 
	C1075.080688,430.193787 1070.474243,427.041260 1068.213623,419.804871 
	C1067.364014,417.085358 1066.787842,414.280426 1065.908691,410.810547 
	C1057.534546,412.745453 1049.951538,414.497589 1042.528564,416.212738 
	C1044.791382,437.784424 1054.644409,448.041687 1074.672852,450.386719 
	C1079.598755,450.963470 1084.654785,451.207092 1089.587646,450.812225 
	C1111.995728,449.018555 1123.246094,437.355713 1124.137207,414.938873 
	C1124.533447,404.972046 1124.302856,394.980286 1124.356812,383.000580 
z"/>
<path fill="#FDFBFF" opacity="1.000000" stroke="none" 
	d="
M1204.948853,638.945557 
	C1208.279785,654.430908 1212.510864,670.004822 1221.185913,684.174011 
	C1238.554565,712.542969 1263.240601,730.589600 1295.606323,738.179993 
	C1297.199585,738.553711 1298.778442,739.018188 1300.321899,739.560364 
	C1300.892822,739.760864 1301.342285,740.307190 1301.986816,740.803284 
	C1248.333008,751.506897 1215.725708,783.732483 1202.840576,839.301575 
	C1190.401001,785.224670 1158.674683,752.723511 1104.790771,740.907898 
	C1160.917847,728.521545 1194.762329,695.565979 1204.948853,638.945557 
z"/>
<path fill="#FEFBFF" opacity="1.000000" stroke="none" 
	d="
M972.495850,411.260315 
	C975.923767,420.132019 978.533875,430.118652 982.699341,439.407867 
	C999.009399,475.780029 1027.228394,497.641449 1066.005615,506.169342 
	C1068.246460,506.662170 1070.430420,507.413391 1073.451172,508.029541 
	C1070.468384,508.958923 1066.688965,509.962891 1062.880249,510.838409 
	C1015.125427,521.815857 980.339417,560.115295 973.424988,609.337708 
	C973.392273,609.570068 973.160706,609.774475 972.581055,610.683594 
	C968.140442,584.694946 958.230896,561.995850 939.914856,543.256042 
	C921.583862,524.500916 899.480591,513.451782 872.602295,509.028717 
	C927.056519,497.414246 961.259766,466.456970 972.495850,411.260315 
z"/>
<path fill="#FDFBFF" opacity="1.000000" stroke="none" 
	d="
M672.322876,517.441650 
	C662.831299,514.202026 654.018066,511.312897 643.475098,507.856720 
	C660.046082,503.610840 675.212830,498.965759 688.663452,490.124542 
	C702.786804,480.841125 714.590576,469.306885 723.621338,455.065277 
	C732.442444,441.154205 738.488708,426.111145 740.901978,407.036621 
	C752.765442,463.578064 785.387817,496.932983 842.156067,508.841400 
	C814.494263,512.746582 792.471558,523.423279 774.491333,541.226379 
	C756.569153,558.972046 745.118347,580.527283 740.796143,606.255371 
	C732.040710,566.003296 710.474976,535.717285 672.322876,517.441650 
z"/>
<path fill="#FDFBFF" opacity="1.000000" stroke="none" 
	d="
M777.381470,710.672058 
	C795.427429,726.791748 816.103271,736.025024 839.022827,740.724182 
	C789.497498,749.064758 750.216125,785.547668 740.699890,840.093079 
	C728.977173,785.161865 696.791504,751.960510 640.805176,739.755005 
	C696.359253,728.087646 727.907593,695.284729 740.632690,643.073364 
	C745.660400,669.611877 757.846619,691.754700 777.381470,710.672058 
z"/>
<path fill="#FDFBFF" opacity="1.000000" stroke="none" 
	d="
M1063.964844,741.929016 
	C1045.258179,746.216003 1028.063965,753.618469 1013.154968,766.000977 
	C993.635254,782.212830 980.404907,802.391968 973.879150,826.949036 
	C973.214478,829.450073 972.193481,831.856445 971.063721,835.091675 
	C961.010010,785.393188 922.449219,748.450134 871.847351,740.976746 
	C928.387268,728.889038 961.623962,695.331299 972.715088,639.211609 
	C982.671326,691.120544 1011.777832,724.409363 1063.095459,738.899902 
	C1063.916748,740.403687 1063.940796,741.166321 1063.964844,741.929016 
z"/>
<path fill="#FDFBFF" opacity="1.000000" stroke="none" 
	d="
M510.249939,599.332214 
	C509.843018,600.966492 509.566895,601.926819 509.434570,602.387085 
	C505.551361,592.012695 502.653381,580.630676 497.183075,570.659912 
	C491.495026,560.292236 483.767456,550.913696 476.109802,541.792664 
	C468.335754,532.533020 458.387878,525.526245 447.379944,520.589661 
	C436.684235,515.792969 425.513092,512.056519 413.600464,507.490265 
	C465.798462,495.231812 497.518951,463.388428 509.446655,409.568848 
	C521.641296,462.639526 552.875366,495.357086 605.560913,507.203094 
	C604.413269,508.065552 603.534851,509.226959 602.451843,509.467529 
	C553.476624,520.345520 523.207458,550.487793 510.249939,599.332214 
z"/>
<path fill="#FDFBFF" opacity="1.000000" stroke="none" 
	d="
M514.526367,663.204529 
	C530.956787,705.410095 561.377991,729.803894 605.425781,739.291870 
	C593.659729,743.706421 582.301086,747.433105 571.401184,752.207153 
	C560.368652,757.039368 551.007996,764.516968 542.367554,772.973572 
	C533.469666,781.682251 525.849548,791.405396 520.691528,802.585083 
	C515.720642,813.359009 512.319214,824.856995 508.376709,835.630981 
	C496.593567,785.012939 465.087097,752.554016 412.666504,739.964355 
	C436.397217,734.460571 457.810669,724.561829 475.330872,707.264343 
	C493.094818,689.726135 503.781219,668.489441 508.831116,643.805969 
	C510.737793,650.371399 512.494812,656.421387 514.526367,663.204529 
z"/>
<path fill="#FCF8FE" opacity="1.000000" stroke="none" 
	d="
M1119.653809,873.998535 
	C1119.653687,859.856873 1119.653687,846.714355 1119.653687,833.571838 
	C1118.958130,833.412720 1118.262695,833.253601 1117.567139,833.094482 
	C1109.796753,854.712402 1102.026367,876.330322 1094.273804,897.898560 
	C1087.176880,897.898560 1080.894897,897.898560 1073.890869,897.898560 
	C1066.137085,876.468567 1058.385864,855.045654 1050.634644,833.622681 
	C1049.970459,833.714661 1049.306274,833.806580 1048.642090,833.898560 
	C1048.642090,858.821472 1048.642090,883.744385 1048.642090,909.168579 
	C1040.295166,909.168579 1033.114136,909.168579 1025.223389,909.168579 
	C1025.223389,874.515381 1025.223389,840.070740 1025.223389,804.878174 
	C1037.741333,804.878174 1050.211182,804.878174 1063.565430,804.878174 
	C1070.310425,823.385925 1077.210815,842.320068 1084.750244,863.007568 
	C1092.120605,842.315979 1098.794556,823.579712 1105.550415,804.613281 
	C1118.288086,804.613281 1130.448608,804.613281 1143.238647,804.613281 
	C1143.238647,839.491028 1143.238647,873.934387 1143.238647,909.042847 
	C1135.603882,909.042847 1128.173096,909.042847 1119.653931,909.042847 
	C1119.653931,897.453613 1119.653931,886.225647 1119.653809,873.998535 
z"/>
<path fill="#FCF8FE" opacity="1.000000" stroke="none" 
	d="
M795.818604,875.994019 
	C795.818604,851.084961 795.818604,827.174133 795.818604,802.708008 
	C808.996460,802.708008 821.195312,802.708008 834.539978,802.708008 
	C841.141296,820.958801 847.904846,839.658142 855.420105,860.435547 
	C863.942444,840.556091 869.178772,821.237976 876.703735,802.689209 
	C889.130432,802.689209 901.324524,802.689209 914.022827,802.689209 
	C914.022827,837.703552 914.022827,872.167175 914.022827,907.165283 
	C906.270691,907.165283 899.064392,907.165283 890.844604,907.165283 
	C890.844604,881.965149 890.844604,856.801514 890.844604,831.637878 
	C890.069824,831.472656 889.295105,831.307434 888.520325,831.142212 
	C880.869019,852.494690 873.217712,873.847229 865.408020,895.641602 
	C858.767029,895.641602 852.215698,895.641602 844.796204,895.641602 
	C837.134644,874.473328 829.395996,853.092102 821.657349,831.710876 
	C821.103271,831.813110 820.549255,831.915283 819.995178,832.017517 
	C819.995178,856.757935 819.995178,881.498413 819.995178,906.962402 
	C811.777222,906.962402 804.361084,906.962402 795.818665,906.962402 
	C795.818665,896.795593 795.818665,886.893982 795.818604,875.994019 
z"/>
<path fill="#FCF8FE" opacity="1.000000" stroke="none" 
	d="
M398.353912,667.210938 
	C391.920105,667.385254 386.293671,667.385254 380.085846,667.385254 
	C372.243103,645.747437 364.520752,624.441833 356.798401,603.136169 
	C356.109344,603.297180 355.420319,603.458130 354.731262,603.619080 
	C354.731262,628.057434 354.731262,652.495789 354.731262,677.627136 
	C346.516571,677.627136 339.083893,677.627136 331.079956,677.627136 
	C331.079956,643.164551 331.079956,608.997498 331.079956,574.128540 
	C343.898773,574.128540 356.382721,574.128540 369.689392,574.128540 
	C376.362183,592.512207 383.128082,611.152405 390.716400,632.058411 
	C398.088226,611.375305 404.625458,593.033875 411.366791,574.119751 
	C423.909393,574.119751 436.348969,574.119751 449.328369,574.119751 
	C449.328369,608.700439 449.328369,642.864197 449.328369,677.681458 
	C441.602997,677.681458 434.167633,677.681458 425.918518,677.681458 
	C425.918518,652.283752 425.918518,627.171265 425.918518,602.058777 
	C425.377808,601.924011 424.837128,601.789246 424.296417,601.654419 
	C423.277313,603.883789 422.090515,606.053040 421.265961,608.352173 
	C415.421600,624.647888 409.712067,640.992126 403.808319,657.266052 
	C402.584076,660.640686 400.726807,663.785767 398.353912,667.210938 
z"/>
<path fill="#FBF7FE" opacity="1.000000" stroke="none" 
	d="
M1538.920654,821.012878 
	C1550.109741,838.795776 1560.891846,855.971924 1571.674072,873.148132 
	C1572.232910,873.048706 1572.791870,872.949341 1573.350708,872.849915 
	C1573.350708,850.871521 1573.350708,828.893127 1573.350708,806.178894 
	C1581.896851,806.178894 1589.328247,806.178894 1597.398315,806.178894 
	C1597.398315,840.439392 1597.398315,874.604919 1597.398315,909.377869 
	C1589.090210,911.422302 1580.471924,910.313293 1572.004517,909.976868 
	C1569.860352,909.891724 1567.351196,906.687500 1565.863037,904.368958 
	C1554.708496,886.988708 1543.784912,869.460449 1532.742065,852.008240 
	C1531.063721,849.355713 1529.142456,846.856750 1525.483154,844.776672 
	C1525.483154,855.590881 1525.483276,866.405090 1525.483276,877.219299 
	C1525.483276,887.821594 1525.483154,898.423950 1525.483154,909.670959 
	C1517.132202,909.670959 1509.630005,909.670959 1502.101929,909.670959 
	C1500.119751,902.819336 1499.686279,817.419006 1501.696777,805.994873 
	C1510.465088,805.994873 1519.345215,805.994873 1529.177490,805.994873 
	C1532.064819,810.451782 1535.289307,815.429016 1538.920654,821.012878 
z"/>
<path fill="#FBF6FE" opacity="1.000000" stroke="none" 
	d="
M816.784302,677.960938 
	C815.431213,675.479492 814.577209,673.279724 814.570984,671.077637 
	C814.484497,640.494446 814.507019,609.910889 814.536194,579.327454 
	C814.537720,577.713684 814.837097,576.100220 815.085083,573.610474 
	C829.825745,573.610474 844.368774,573.207764 858.873230,573.781311 
	C866.060547,574.065430 873.465576,575.291382 880.266235,577.588562 
	C895.134949,582.610901 904.598083,593.293274 908.837341,608.440735 
	C912.042664,619.893555 912.102173,631.456299 909.048706,642.911133 
	C903.429871,663.989746 885.799561,677.534485 862.550598,678.215942 
	C847.605530,678.653931 832.636047,678.261658 816.784302,677.960938 
M839.485107,640.921631 
	C839.629395,646.422791 839.773682,651.924011 839.929199,657.852478 
	C847.349670,657.852478 853.659424,658.240967 859.904724,657.771606 
	C872.917175,656.793640 881.395142,649.483521 884.712219,636.888184 
	C886.883850,628.641968 886.625793,620.392334 883.931702,612.317749 
	C881.114136,603.872986 875.449036,598.188843 866.800781,595.649414 
	C858.035095,593.075500 849.220154,593.807373 840.606995,594.634033 
	C840.143127,595.828979 839.712280,596.425659 839.707886,597.025574 
	C839.605591,610.995789 839.549377,624.966370 839.485107,640.921631 
z"/>
<path fill="#FCF9FE" opacity="1.000000" stroke="none" 
	d="
M585.007202,896.988281 
	C568.422668,880.728088 565.895203,849.785950 576.227600,829.201477 
	C577.709045,826.250061 579.563049,823.421387 581.618958,820.833252 
	C594.202393,804.992554 618.606628,798.638306 640.905640,805.266113 
	C660.921204,811.215332 674.079041,826.760437 675.672852,848.109314 
	C676.331299,856.929199 675.931030,866.234680 673.813660,874.774109 
	C668.730347,895.274719 654.737976,906.977661 633.947449,910.170288 
	C616.074036,912.914978 599.447876,910.167725 585.007202,896.988281 
M613.260315,888.669495 
	C630.757202,892.838135 642.750793,887.667114 648.373718,873.190735 
	C652.631775,862.228149 652.535461,851.090393 648.140930,840.180969 
	C643.763367,829.313599 635.131165,823.757935 623.327698,823.717346 
	C611.556641,823.676880 602.091370,829.057922 598.598206,840.074768 
	C596.262085,847.442627 595.674622,855.695435 595.972961,863.488342 
	C596.388733,874.350769 601.331543,883.221008 613.260315,888.669495 
z"/>
<path fill="#FCF9FE" opacity="1.000000" stroke="none" 
	d="
M1361.431885,891.249023 
	C1344.496704,914.449036 1310.390381,914.925171 1291.980469,905.456360 
	C1271.851318,895.103088 1265.069946,877.222290 1265.393555,855.654968 
	C1265.706909,834.762817 1273.010620,817.610779 1292.644287,808.340271 
	C1309.764038,800.256775 1327.675659,800.515259 1344.766357,808.739075 
	C1364.026855,818.006897 1372.576416,837.692078 1371.286133,861.599548 
	C1370.725220,871.992859 1368.017822,881.954102 1361.431885,891.249023 
M1290.840698,848.485657 
	C1289.345825,857.528503 1289.901367,866.389404 1293.759766,874.790833 
	C1298.531494,885.180298 1306.742554,890.323425 1318.233276,890.309082 
	C1329.687744,890.294861 1338.026733,885.340515 1342.697510,874.829712 
	C1347.190063,864.719543 1347.466797,854.211182 1344.337769,843.708252 
	C1339.827515,828.569397 1327.551514,821.042297 1312.165649,824.208130 
	C1299.978394,826.715820 1293.763672,835.186890 1290.840698,848.485657 
z"/>
<path fill="#FBF7FE" opacity="1.000000" stroke="none" 
	d="
M592.332153,676.342651 
	C588.782715,676.169189 586.194153,675.995850 583.075928,675.786987 
	C583.075928,641.164429 583.075928,606.989685 583.075928,571.337646 
	C608.129700,571.101562 633.171570,571.221252 658.645386,571.300781 
	C658.645386,578.605713 658.645386,584.770691 658.645386,591.942749 
	C641.663940,591.942749 625.182129,591.942749 608.120117,591.942749 
	C608.120117,599.381104 608.120117,605.808411 608.120117,613.350159 
	C623.551208,613.350159 638.372375,613.350159 653.517944,613.350159 
	C653.517944,619.740784 653.517944,625.020447 653.517944,631.646790 
	C646.018250,631.774109 638.536072,631.949402 631.052917,632.014404 
	C623.761169,632.077698 616.468384,632.028137 608.337524,632.028137 
	C608.337524,639.954834 608.337524,647.347656 608.337524,655.643677 
	C625.527405,655.643677 642.724060,655.643677 660.696411,655.643677 
	C660.696411,662.619446 660.696411,668.722778 660.696411,676.342651 
	C638.271301,676.342651 615.782166,676.342651 592.332153,676.342651 
z"/>
<path fill="#FBF7FE" opacity="1.000000" stroke="none" 
	d="
M1738.272949,881.547241 
	C1745.159546,880.075439 1751.304565,878.785339 1757.201904,877.547241 
	C1765.561035,891.389221 1777.304565,895.956421 1792.117676,891.607300 
	C1798.935059,889.605713 1802.512573,885.017090 1802.243652,878.619202 
	C1802.007080,872.992065 1799.205322,869.649231 1792.132324,868.143982 
	C1784.335083,866.484558 1776.381714,865.568298 1768.512207,864.234375 
	C1765.572266,863.736023 1762.617188,863.169128 1759.772095,862.297058 
	C1745.832642,858.024536 1739.475464,850.112000 1738.868164,836.506836 
	C1738.262695,822.944824 1744.570923,811.907959 1756.927612,807.079041 
	C1772.742432,800.898560 1788.879150,800.896912 1804.541382,807.763611 
	C1814.172607,811.986145 1820.625244,819.193542 1822.198853,831.248657 
	C1814.548828,832.671631 1807.204346,834.037781 1800.001953,835.377502 
	C1792.949097,822.529053 1786.488892,819.422302 1773.108276,822.129883 
	C1766.601929,823.446533 1762.986084,827.193542 1762.971924,832.633667 
	C1762.958740,837.717529 1765.703979,841.112793 1772.279541,842.633423 
	C1778.740845,844.127747 1785.384033,844.827393 1791.936768,845.938904 
	C1795.867676,846.605713 1799.843140,847.149048 1803.686279,848.170471 
	C1817.443970,851.827087 1824.702881,859.637451 1825.985596,871.839172 
	C1827.607666,887.269348 1822.153320,899.531189 1809.716187,905.370544 
	C1803.526489,908.276550 1796.490967,909.816406 1789.667847,910.842896 
	C1777.266602,912.708435 1765.057129,910.986877 1753.515381,906.007446 
	C1744.585571,902.154907 1737.943604,895.924377 1735.270752,886.138062 
	C1734.633301,883.803650 1734.896118,882.237366 1738.272949,881.547241 
z"/>
<path fill="#FCF8FE" opacity="1.000000" stroke="none" 
	d="
M811.968628,366.551025 
	C819.657043,339.998260 841.639648,331.910889 863.426514,335.761597 
	C877.272705,338.208862 887.432983,345.750397 892.738464,358.645325 
	C900.929932,378.554749 901.024902,399.001923 892.929504,418.875214 
	C885.811340,436.349426 871.241943,443.321564 853.029297,443.088104 
	C834.685242,442.852936 820.948792,434.881592 814.075867,417.389435 
	C807.667969,401.080841 808.150513,384.237244 811.968628,366.551025 
M840.410339,361.348999 
	C830.800232,375.885345 832.193909,391.724243 835.837463,407.398193 
	C838.303894,418.008179 844.762390,422.409058 854.201965,422.277924 
	C863.340088,422.151001 869.272400,417.278656 872.157471,406.716766 
	C875.362244,394.984406 875.445251,383.048218 872.159302,371.343719 
	C867.754089,355.652222 855.479309,351.357635 840.410339,361.348999 
z"/>
<path fill="#FCF8FE" opacity="1.000000" stroke="none" 
	d="
M341.731720,842.150146 
	C346.756439,819.010498 364.103699,802.666443 394.197418,802.849121 
	C404.268097,802.910217 414.078247,804.775513 422.901337,810.076050 
	C433.711121,816.570190 440.888153,825.654297 443.172058,839.830933 
	C435.222198,841.562317 427.349548,843.276978 419.106049,845.072327 
	C418.120331,842.795654 417.497803,841.316284 416.842712,839.851440 
	C411.326477,827.515686 403.593506,822.884583 390.071106,823.809204 
	C378.183655,824.622009 369.826294,831.432800 366.849243,843.643921 
	C364.618530,852.793762 364.585419,862.134949 367.437195,871.248291 
	C370.831177,882.094299 377.969452,888.850159 389.509552,890.086304 
	C401.496826,891.370422 411.124695,887.464478 417.181427,876.491516 
	C418.279968,874.501221 419.356018,872.498535 420.693146,870.040833 
	C428.597168,872.040527 436.208099,873.966125 444.733398,876.122986 
	C441.201477,889.198120 433.900085,898.296631 422.929169,904.003235 
	C404.719391,913.475037 385.718811,914.031555 367.143829,905.428467 
	C349.764618,897.379211 342.151581,882.087952 340.483582,863.793091 
	C339.859070,856.942932 341.159882,849.917297 341.731720,842.150146 
z"/>
<path fill="#FDFAFE" opacity="1.000000" stroke="none" 
	d="
M1302.642822,586.535767 
	C1304.608154,581.860474 1306.261963,577.906311 1308.132324,573.434448 
	C1314.394775,573.434448 1320.348511,573.434448 1326.302246,573.434448 
	C1329.927246,573.434448 1333.552246,573.434448 1337.695435,573.434448 
	C1351.386963,608.148987 1364.890015,642.385803 1378.787231,677.621948 
	C1369.602051,677.621948 1361.538696,677.621948 1353.002563,677.621948 
	C1350.400391,670.934448 1347.770264,664.174866 1344.946045,656.916626 
	C1330.397095,656.916626 1315.870483,656.916626 1300.691895,656.916626 
	C1298.119873,663.528809 1295.489746,670.290344 1292.627563,677.648315 
	C1284.525879,677.648315 1276.385254,677.648315 1266.834717,677.648315 
	C1278.827515,647.109009 1290.579468,617.183044 1302.642822,586.535767 
M1313.846313,620.791321 
	C1312.214966,626.282898 1308.961548,631.348450 1308.789673,637.395020 
	C1318.655640,637.395020 1327.818481,637.395020 1338.159424,637.395020 
	C1333.190674,623.901306 1328.528198,611.239075 1323.056030,596.378052 
	C1319.494873,605.715881 1316.902344,612.513794 1313.846313,620.791321 
z"/>
<path fill="#FBF6FE" opacity="1.000000" stroke="none" 
	d="
M369.856689,369.234741 
	C363.540894,368.228638 358.009979,367.377777 351.998474,366.452942 
	C351.948883,355.978882 356.992737,348.958893 364.375580,343.404266 
	C378.624634,332.683655 405.212555,331.587738 420.486053,340.632141 
	C438.500458,351.299591 436.889191,377.959534 421.491730,384.334015 
	C420.633545,384.689270 419.963104,385.498108 418.320679,386.793457 
	C426.111694,389.643494 431.926056,393.955994 434.443268,401.654236 
	C436.597046,408.241119 436.525208,414.718658 434.318726,421.238159 
	C431.456818,429.694305 425.555176,435.422607 417.497284,438.610016 
	C400.984589,445.141815 384.268463,445.146759 367.973785,438.000458 
	C357.175293,433.264587 350.814331,424.846100 349.926117,411.542816 
	C357.551025,410.363953 364.890015,409.229248 372.039948,408.123810 
	C378.739471,423.637970 388.768066,428.665741 402.842163,424.136566 
	C410.099274,421.801147 413.164337,416.893372 412.427734,408.788330 
	C411.809967,401.990875 408.243134,398.357025 400.654175,397.776672 
	C395.071930,397.349792 389.430817,397.692932 383.053436,397.692932 
	C383.053436,391.067291 383.053436,385.347870 383.053436,378.313049 
	C388.245575,378.313049 393.197662,378.716156 398.059082,378.223969 
	C406.574127,377.361816 411.560669,370.990234 409.707062,363.032227 
	C409.021576,360.089264 406.952820,356.661774 404.477081,355.089417 
	C396.083069,349.758240 379.590668,351.570251 376.167450,363.944122 
	C375.367188,366.836884 374.995972,370.122559 369.856689,369.234741 
z"/>
<path fill="#FCF9FE" opacity="1.000000" stroke="none" 
	d="
M654.129150,384.187561 
	C645.968140,403.892365 638.058350,422.874756 630.118591,441.928986 
	C622.007324,441.928986 614.465576,441.928986 605.754517,441.928986 
	C617.680115,414.163605 629.284302,387.146332 641.607788,358.454590 
	C623.797119,358.454590 607.483276,358.454590 590.678589,358.454590 
	C590.678589,350.997375 590.678589,344.862122 590.678589,338.076233 
	C615.481201,338.076233 639.912903,338.076233 664.898926,338.076233 
	C666.111938,346.682556 666.754639,355.017975 662.875671,363.256989 
	C659.765930,369.862152 657.191956,376.719604 654.129150,384.187561 
z"/>
<path fill="#F8F0FD" opacity="1.000000" stroke="none" 
	d="
M1099.526123,590.220886 
	C1099.525879,619.704590 1099.525879,648.222046 1099.525879,677.415039 
	C1091.203613,679.204102 1083.440674,678.030151 1075.086060,678.273560 
	C1075.086060,643.138062 1075.086060,608.780945 1075.086060,573.830688 
	C1083.168701,573.830688 1090.935669,573.830688 1099.526245,573.830688 
	C1099.526245,579.403687 1099.526245,584.329163 1099.526123,590.220886 
z"/>
<path fill="#DAAFF5" opacity="1.000000" stroke="none" 
	d="
M1064.707520,742.015503 
	C1063.940796,741.166321 1063.916748,740.403687 1063.847778,739.068848 
	C1066.204712,738.825928 1068.606689,739.155151 1071.008545,739.484436 
	C1071.068848,740.037354 1071.129028,740.590332 1071.189331,741.143311 
	C1069.276367,741.462891 1067.363281,741.782471 1064.707520,742.015503 
z"/>
<path fill="#FFFFFE" opacity="1.000000" stroke="none" 
	d="
M2209.719727,331.634369 
	C2237.369141,315.645081 2266.037598,304.589600 2296.942871,299.367126 
	C2334.936768,292.946777 2372.395264,294.795502 2409.415039,305.480133 
	C2457.376221,319.322571 2497.937500,345.059570 2530.901367,382.391357 
	C2562.149902,417.780457 2582.845703,458.736359 2591.758789,505.206085 
	C2594.743164,520.764160 2595.854004,536.681580 2597.911865,553.159546 
	C2588.382080,553.159546 2579.915771,553.159546 2570.753906,553.159546 
	C2570.562744,549.441101 2570.257324,546.202515 2570.251953,542.963379 
	C2570.211182,518.632690 2569.438721,494.267975 2570.476318,469.981476 
	C2571.329590,450.007019 2554.875488,430.256805 2530.720947,430.246246 
	C2423.731934,430.199524 2316.742920,430.237366 2209.753906,430.203461 
	C2201.149414,430.200745 2193.429443,432.835815 2186.191895,437.258179 
	C2162.335693,451.834900 2138.610840,466.633636 2114.565186,480.890594 
	C2099.052734,490.088043 2091.322510,503.119171 2091.731201,521.158569 
	C2091.956543,531.103760 2091.771729,541.058289 2091.771729,551.595581 
	C2088.462646,551.595581 2086.005859,551.595581 2082.194580,551.595581 
	C2088.012695,456.804169 2128.713623,383.059296 2209.719727,331.634369 
z"/>
<path fill="#FFFFFA" opacity="1.000000" stroke="none" 
	d="
M2116.209473,736.000000 
	C2116.209717,667.700256 2116.182129,600.400513 2116.274414,533.100891 
	C2116.280273,528.845947 2116.640869,524.419678 2117.844482,520.373047 
	C2120.547119,511.286407 2127.682373,506.160278 2137.010498,505.774139 
	C2138.340820,505.719055 2139.675537,505.759583 2141.008057,505.759583 
	C2241.291260,505.759186 2341.574707,505.758942 2441.857910,505.760437 
	C2443.856934,505.760468 2445.866455,505.650940 2447.853027,505.814209 
	C2457.772705,506.629425 2465.245850,513.946594 2466.156738,523.778076 
	C2466.370850,526.091797 2466.239258,528.438965 2466.239258,530.770752 
	C2466.242188,630.720825 2466.271729,730.670959 2466.144531,830.620850 
	C2466.138916,835.139893 2465.574463,840.041260 2463.767090,844.094299 
	C2460.142578,852.222046 2452.551758,854.946350 2444.207520,855.710266 
	C2441.563477,855.952393 2438.880371,855.782043 2436.215332,855.782104 
	C2339.596924,855.784058 2242.978516,855.783752 2146.360107,855.783752 
	C2145.027344,855.783752 2143.694580,855.797729 2142.362061,855.781189 
	C2125.381836,855.570496 2116.635010,847.122559 2116.272461,829.952209 
	C2115.977051,815.965393 2116.209717,801.967468 2116.209229,787.974426 
	C2116.208740,770.982971 2116.209229,753.991455 2116.209473,736.000000 
M2303.000000,830.211487 
	C2325.316895,830.211426 2347.633545,830.212280 2369.950439,830.211243 
	C2387.604004,830.210388 2405.258057,830.111633 2422.910400,830.260376 
	C2428.607666,830.308350 2433.195801,828.716492 2437.036621,824.314758 
	C2440.239502,820.644226 2440.217041,816.488953 2440.216309,812.134766 
	C2440.199707,724.533569 2440.204102,636.932312 2440.200439,549.331116 
	C2440.200195,547.666077 2440.302490,545.982788 2440.101562,544.339233 
	C2439.193359,536.909546 2434.519287,532.461365 2426.925537,531.842957 
	C2424.608643,531.654297 2422.264648,531.789734 2419.933105,531.789734 
	C2333.997314,531.788391 2248.061523,531.788391 2162.125732,531.789673 
	C2159.794189,531.789734 2157.451172,531.657104 2155.133545,531.840881 
	C2147.573730,532.440308 2142.793701,536.903748 2141.919189,544.312866 
	C2141.608887,546.943542 2141.798828,549.635986 2141.798584,552.300232 
	C2141.794678,637.902954 2141.795166,723.505676 2141.796387,809.108398 
	C2141.796387,811.106873 2141.711182,813.111328 2141.832520,815.102783 
	C2142.386475,824.184692 2147.850098,829.584229 2157.109375,830.148987 
	C2159.764893,830.310974 2162.437012,830.209595 2165.101562,830.209717 
	C2210.401123,830.212219 2255.700439,830.211670 2303.000000,830.211487 
z"/>
<path fill="#FFFFFB" opacity="1.000000" stroke="none" 
	d="
M2346.000000,955.781555 
	C2261.721191,955.781555 2178.442627,955.781860 2095.163818,955.781555 
	C2092.498779,955.781555 2089.828125,955.889893 2087.169922,955.752747 
	C2071.072510,954.921936 2060.910156,945.376831 2060.345703,929.427002 
	C2059.804199,914.122864 2059.834473,898.772095 2060.327393,883.464783 
	C2060.872559,866.532227 2076.038574,854.769775 2092.723877,857.986328 
	C2094.966797,858.418701 2097.417480,860.450562 2098.762451,862.428284 
	C2107.256104,874.916321 2119.595459,879.679016 2133.918457,879.695190 
	C2239.849121,879.814819 2345.779785,879.870178 2451.709473,879.520630 
	C2459.045410,879.496399 2466.472168,876.368347 2473.654541,874.054932 
	C2477.039307,872.964600 2480.264893,870.758484 2483.010986,868.412415 
	C2495.352051,857.868042 2509.817139,856.534424 2525.125488,857.837708 
	C2541.613525,859.241394 2551.001709,867.983276 2551.644775,884.413330 
	C2552.230469,899.380554 2552.194824,914.403992 2551.656982,929.374756 
	C2551.071533,945.668091 2540.600830,955.376221 2523.882812,955.723572 
	C2510.563965,956.000244 2497.234863,955.781677 2483.910156,955.781799 
	C2438.273438,955.782104 2392.636719,955.781799 2346.000000,955.781555 
M2201.000000,894.220703 
	C2170.147461,894.308533 2139.288818,894.034180 2108.495117,894.377380 
	C2108.495117,910.337524 2108.495117,924.835083 2108.495117,939.203979 
	C2122.637695,941.265198 2466.532715,940.595886 2473.498779,938.589417 
	C2473.498779,924.111450 2473.498779,909.633423 2473.498779,894.221069 
	C2382.850342,894.221069 2292.925293,894.221069 2201.000000,894.220703 
z"/>
<path fill="#060206" opacity="1.000000" stroke="none" 
	d="
M1124.356689,384.000214 
	C1124.302856,394.980286 1124.533447,404.972046 1124.137207,414.938873 
	C1123.246094,437.355713 1111.995728,449.018555 1089.587646,450.812225 
	C1084.654785,451.207092 1079.598755,450.963470 1074.672852,450.386719 
	C1054.644409,448.041687 1044.791382,437.784424 1042.528564,416.212738 
	C1049.951538,414.497589 1057.534546,412.745453 1065.908691,410.810547 
	C1066.787842,414.280426 1067.364014,417.085358 1068.213623,419.804871 
	C1070.474243,427.041260 1075.080688,430.193787 1083.253296,430.275970 
	C1091.676147,430.360687 1096.288330,427.627319 1098.417969,420.205750 
	C1099.585693,416.136627 1099.874634,411.708557 1099.904419,407.437775 
	C1100.048218,386.835571 1099.969238,366.231812 1099.969238,344.883545 
	C1107.899902,344.883545 1115.352905,344.883545 1123.990234,344.883545 
	C1124.768066,357.350891 1124.165161,370.191620 1124.356689,384.000214 
z"/>
<path fill="#8B03E1" opacity="1.000000" stroke="none" 
	d="
M839.484924,639.929260 
	C839.549377,624.966370 839.605591,610.995789 839.707886,597.025574 
	C839.712280,596.425659 840.143127,595.828979 840.606995,594.634033 
	C849.220154,593.807373 858.035095,593.075500 866.800781,595.649414 
	C875.449036,598.188843 881.114136,603.872986 883.931702,612.317749 
	C886.625793,620.392334 886.883850,628.641968 884.712219,636.888184 
	C881.395142,649.483521 872.917175,656.793640 859.904724,657.771606 
	C853.659424,658.240967 847.349670,657.852478 839.929199,657.852478 
	C839.773682,651.924011 839.629395,646.422791 839.484924,639.929260 
z"/>
<path fill="#8B05E2" opacity="1.000000" stroke="none" 
	d="
M612.515137,888.386841 
	C601.331543,883.221008 596.388733,874.350769 595.972961,863.488342 
	C595.674622,855.695435 596.262085,847.442627 598.598206,840.074768 
	C602.091370,829.057922 611.556641,823.676880 623.327698,823.717346 
	C635.131165,823.757935 643.763367,829.313599 648.140930,840.180969 
	C652.535461,851.090393 652.631775,862.228149 648.373718,873.190735 
	C642.750793,887.667114 630.757202,892.838135 612.515137,888.386841 
z"/>
<path fill="#8B05E2" opacity="1.000000" stroke="none" 
	d="
M1291.072998,847.684814 
	C1293.763672,835.186890 1299.978394,826.715820 1312.165649,824.208130 
	C1327.551514,821.042297 1339.827515,828.569397 1344.337769,843.708252 
	C1347.466797,854.211182 1347.190063,864.719543 1342.697510,874.829712 
	C1338.026733,885.340515 1329.687744,890.294861 1318.233276,890.309082 
	C1306.742554,890.323425 1298.531494,885.180298 1293.759766,874.790833 
	C1289.901367,866.389404 1289.345825,857.528503 1291.072998,847.684814 
z"/>
<path fill="#8B05E2" opacity="1.000000" stroke="none" 
	d="
M840.952759,360.789612 
	C855.479309,351.357635 867.754089,355.652222 872.159302,371.343719 
	C875.445251,383.048218 875.362244,394.984406 872.157471,406.716766 
	C869.272400,417.278656 863.340088,422.151001 854.201965,422.277924 
	C844.762390,422.409058 838.303894,418.008179 835.837463,407.398193 
	C832.193909,391.724243 830.800232,375.885345 840.952759,360.789612 
z"/>
<path fill="#900FE3" opacity="1.000000" stroke="none" 
	d="
M1314.078125,620.051514 
	C1316.902344,612.513794 1319.494873,605.715881 1323.056030,596.378052 
	C1328.528198,611.239075 1333.190674,623.901306 1338.159424,637.395020 
	C1327.818481,637.395020 1318.655640,637.395020 1308.789673,637.395020 
	C1308.961548,631.348450 1312.214966,626.282898 1314.078125,620.051514 
z"/>
<path fill="#F1ED53" opacity="1.000000" stroke="none" 
	d="
M2302.000000,830.211670 
	C2255.700439,830.211670 2210.401123,830.212219 2165.101562,830.209717 
	C2162.437012,830.209595 2159.764893,830.310974 2157.109375,830.148987 
	C2147.850098,829.584229 2142.386475,824.184692 2141.832520,815.102783 
	C2141.711182,813.111328 2141.796387,811.106873 2141.796387,809.108398 
	C2141.795166,723.505676 2141.794678,637.902954 2141.798584,552.300232 
	C2141.798828,549.635986 2141.608887,546.943542 2141.919189,544.312866 
	C2142.793701,536.903748 2147.573730,532.440308 2155.133545,531.840881 
	C2157.451172,531.657104 2159.794189,531.789734 2162.125732,531.789673 
	C2248.061523,531.788391 2333.997314,531.788391 2419.933105,531.789734 
	C2422.264648,531.789734 2424.608643,531.654297 2426.925537,531.842957 
	C2434.519287,532.461365 2439.193359,536.909546 2440.101562,544.339233 
	C2440.302490,545.982788 2440.200195,547.666077 2440.200439,549.331116 
	C2440.204102,636.932312 2440.199707,724.533569 2440.216309,812.134766 
	C2440.217041,816.488953 2440.239502,820.644226 2437.036621,824.314758 
	C2433.195801,828.716492 2428.607666,830.308350 2422.910400,830.260376 
	C2405.258057,830.111633 2387.604004,830.210388 2369.950439,830.211243 
	C2347.633545,830.212280 2325.316895,830.211426 2302.000000,830.211670 
M2322.297363,781.705688 
	C2323.508301,780.797607 2325.725830,779.934448 2325.768799,778.974243 
	C2326.072510,772.171326 2325.930176,765.348511 2325.930176,758.333069 
	C2302.264893,758.333069 2279.837402,758.333069 2257.003418,758.333069 
	C2257.003418,766.292114 2257.003418,773.659668 2257.003418,781.775330 
	C2278.671875,781.775330 2299.549316,781.775330 2322.297363,781.705688 
M2354.280762,643.751587 
	C2354.280762,650.279541 2354.280762,656.807495 2354.280762,663.557312 
	C2363.329834,663.557312 2371.091064,663.557312 2379.772705,663.557312 
	C2379.160889,655.452393 2381.318604,647.992065 2377.992188,639.435120 
	C2370.176758,640.294861 2362.450439,641.144775 2354.280762,643.751587 
M2176.211426,677.078735 
	C2176.306885,681.241638 2176.402588,685.404480 2176.499268,689.617798 
	C2184.913818,689.617798 2192.038086,689.617798 2199.605957,689.617798 
	C2199.605957,681.601257 2199.605957,674.213501 2199.605957,666.591003 
	C2191.623779,666.591003 2184.293945,666.591003 2176.644043,666.591003 
	C2176.472656,670.002441 2176.342285,672.601318 2176.211426,677.078735 
M2201.740967,654.894958 
	C2201.969238,657.749329 2202.197510,660.603760 2202.443604,663.683228 
	C2210.355957,663.683228 2217.476562,663.683228 2225.049316,663.683228 
	C2225.049316,655.744751 2225.049316,648.389099 2225.049316,640.793274 
	C2217.160645,640.793274 2210.037842,640.793274 2201.740234,640.793274 
	C2201.740234,645.229309 2201.740234,649.109863 2201.740967,654.894958 
M2251.786621,682.648193 
	C2251.786621,677.436951 2251.786621,672.225769 2251.786621,666.469543 
	C2243.360352,666.469543 2236.020020,666.469543 2228.482666,666.469543 
	C2228.482666,674.585327 2228.482666,681.973083 2228.482666,690.199646 
	C2235.078369,690.199646 2240.968262,690.141907 2246.856445,690.219604 
	C2250.871094,690.272583 2251.943848,687.973145 2251.786621,682.648193 
M2341.017578,690.242065 
	C2344.882812,690.242065 2348.748047,690.242065 2353.180176,690.242065 
	C2353.180176,681.678101 2353.180176,674.288391 2353.180176,666.537598 
	C2345.220703,666.537598 2337.878662,666.537598 2330.546631,666.537598 
	C2330.546631,674.716858 2330.546631,682.103882 2330.546631,689.788147 
	C2333.915771,689.966675 2336.515137,690.104431 2341.017578,690.242065 
M2381.757080,678.947266 
	C2381.911865,682.450439 2382.066895,685.953552 2382.230957,689.663330 
	C2390.375732,689.663330 2397.484863,689.663330 2405.186768,689.663330 
	C2405.186768,681.694214 2405.186768,674.303711 2405.186768,666.531311 
	C2397.234375,666.531311 2389.892822,666.531311 2381.756592,666.531311 
	C2381.756592,670.551208 2381.756592,673.802185 2381.757080,678.947266 
M2255.702637,752.376465 
	C2255.702637,745.859741 2255.702637,739.343018 2255.702637,732.557617 
	C2247.188721,732.557617 2239.842041,732.557617 2232.572754,732.557617 
	C2232.572754,740.762268 2232.572754,748.154114 2232.572754,755.432434 
	C2245.354736,756.894958 2249.058594,756.670105 2255.702637,752.376465 
M2327.757324,746.862305 
	C2327.981934,749.713989 2328.206543,752.565735 2328.491455,756.185303 
	C2336.558594,755.567322 2343.991211,757.742188 2351.213135,754.890320 
	C2351.213135,747.241333 2351.213135,740.099060 2351.213135,732.500427 
	C2343.292236,732.500427 2335.953125,732.500427 2327.756592,732.500427 
	C2327.756592,737.139526 2327.756592,741.043091 2327.757324,746.862305 
z"/>
<path fill="#F1ED57" opacity="1.000000" stroke="none" 
	d="
M2202.000000,894.220886 
	C2292.925293,894.221069 2382.850342,894.221069 2473.498779,894.221069 
	C2473.498779,909.633423 2473.498779,924.111450 2473.495605,938.594727 
	C2466.532715,940.595886 2122.637695,941.265198 2108.495117,939.203979 
	C2108.495117,924.835083 2108.495117,910.337524 2108.495117,894.377380 
	C2139.288818,894.034180 2170.147461,894.308533 2202.000000,894.220886 
M2251.000000,925.778748 
	C2316.455078,925.778748 2381.909912,925.778748 2447.631348,925.778748 
	C2447.631348,920.549377 2447.631348,916.722229 2447.631348,913.013184 
	C2435.205566,910.773682 2141.200439,911.345276 2134.563477,913.443359 
	C2134.563477,917.343994 2134.563477,921.161438 2134.563477,925.778442 
	C2173.225342,925.778442 2211.112793,925.778442 2251.000000,925.778748 
z"/>
<path fill="#FFFEFA" opacity="1.000000" stroke="none" 
	d="
M2321.362061,781.740479 
	C2299.549316,781.775330 2278.671875,781.775330 2257.003418,781.775330 
	C2257.003418,773.659668 2257.003418,766.292114 2257.003418,758.333069 
	C2279.837402,758.333069 2302.264893,758.333069 2325.930176,758.333069 
	C2325.930176,765.348511 2326.072510,772.171326 2325.768799,778.974243 
	C2325.725830,779.934448 2323.508301,780.797607 2321.362061,781.740479 
z"/>
<path fill="#FEFEF5" opacity="1.000000" stroke="none" 
	d="
M2354.502441,642.873169 
	C2362.450439,641.144775 2370.176758,640.294861 2377.992188,639.435120 
	C2381.318604,647.992065 2379.160889,655.452393 2379.772705,663.557312 
	C2371.091064,663.557312 2363.329834,663.557312 2354.280762,663.557312 
	C2354.280762,656.807495 2354.280762,650.279541 2354.502441,642.873169 
z"/>
<path fill="#FFFFFB" opacity="1.000000" stroke="none" 
	d="
M2176.211670,676.139465 
	C2176.342285,672.601318 2176.472656,670.002441 2176.644043,666.591003 
	C2184.293945,666.591003 2191.623779,666.591003 2199.605957,666.591003 
	C2199.605957,674.213501 2199.605957,681.601257 2199.605957,689.617798 
	C2192.038086,689.617798 2184.913818,689.617798 2176.499268,689.617798 
	C2176.402588,685.404480 2176.306885,681.241638 2176.211670,676.139465 
z"/>
<path fill="#FEFEF8" opacity="1.000000" stroke="none" 
	d="
M2201.740723,653.942749 
	C2201.740234,649.109863 2201.740234,645.229309 2201.740234,640.793274 
	C2210.037842,640.793274 2217.160645,640.793274 2225.049316,640.793274 
	C2225.049316,648.389099 2225.049316,655.744751 2225.049316,663.683228 
	C2217.476562,663.683228 2210.355957,663.683228 2202.443604,663.683228 
	C2202.197510,660.603760 2201.969238,657.749329 2201.740723,653.942749 
z"/>
<path fill="#FFFFFB" opacity="1.000000" stroke="none" 
	d="
M2251.780273,683.580750 
	C2251.943848,687.973145 2250.871094,690.272583 2246.856445,690.219604 
	C2240.968262,690.141907 2235.078369,690.199646 2228.482666,690.199646 
	C2228.482666,681.973083 2228.482666,674.585327 2228.482666,666.469543 
	C2236.020020,666.469543 2243.360352,666.469543 2251.786621,666.469543 
	C2251.786621,672.225769 2251.786621,677.436951 2251.780273,683.580750 
z"/>
<path fill="#FFFFFB" opacity="1.000000" stroke="none" 
	d="
M2340.066162,690.242126 
	C2336.515137,690.104431 2333.915771,689.966675 2330.546631,689.788147 
	C2330.546631,682.103882 2330.546631,674.716858 2330.546631,666.537598 
	C2337.878662,666.537598 2345.220703,666.537598 2353.180176,666.537598 
	C2353.180176,674.288391 2353.180176,681.678101 2353.180176,690.242065 
	C2348.748047,690.242065 2344.882812,690.242065 2340.066162,690.242126 
z"/>
<path fill="#FFFFFB" opacity="1.000000" stroke="none" 
	d="
M2381.756836,678.000183 
	C2381.756592,673.802185 2381.756592,670.551208 2381.756592,666.531311 
	C2389.892822,666.531311 2397.234375,666.531311 2405.186768,666.531311 
	C2405.186768,674.303711 2405.186768,681.694214 2405.186768,689.663330 
	C2397.484863,689.663330 2390.375732,689.663330 2382.230957,689.663330 
	C2382.066895,685.953552 2381.911865,682.450439 2381.756836,678.000183 
z"/>
<path fill="#FFFFFB" opacity="1.000000" stroke="none" 
	d="
M2255.529785,753.284424 
	C2249.058594,756.670105 2245.354736,756.894958 2232.572754,755.432434 
	C2232.572754,748.154114 2232.572754,740.762268 2232.572754,732.557617 
	C2239.842041,732.557617 2247.188721,732.557617 2255.702637,732.557617 
	C2255.702637,739.343018 2255.702637,745.859741 2255.529785,753.284424 
z"/>
<path fill="#FFFFFB" opacity="1.000000" stroke="none" 
	d="
M2327.756836,745.904480 
	C2327.756592,741.043091 2327.756592,737.139526 2327.756592,732.500427 
	C2335.953125,732.500427 2343.292236,732.500427 2351.213135,732.500427 
	C2351.213135,740.099060 2351.213135,747.241333 2351.213135,754.890320 
	C2343.991211,757.742188 2336.558594,755.567322 2328.491455,756.185303 
	C2328.206543,752.565735 2327.981934,749.713989 2327.756836,745.904480 
z"/>
<path fill="#FEFEF9" opacity="1.000000" stroke="none" 
	d="
M2250.000000,925.778564 
	C2211.112793,925.778442 2173.225342,925.778442 2134.563477,925.778442 
	C2134.563477,921.161438 2134.563477,917.343994 2134.563477,913.443359 
	C2141.200439,911.345276 2435.205566,910.773682 2447.631348,913.013184 
	C2447.631348,916.722229 2447.631348,920.549377 2447.631348,925.778748 
	C2381.909912,925.778748 2316.455078,925.778748 2250.000000,925.778564 
z"/>
</svg>